<?xml version="1.0" encoding="UTF-8"?>
<svg xmlns="http://www.w3.org/2000/svg" data-name="Layer 1" viewBox="0 0 800 800" width="800" height="800"><g fill="#b74701"><path d="M89.13 314.36l6.09.82 4.01 4.78 5.74 3.79 1.62 6.35.89 6.35 1.21 6.18 1.49 5.57.31 5.79 1.45 5.65 1.48 5.73.85 5.81-2.48 5.89 1.38 5.8-.62 5.83.33 5.86.45 6.2 2.99 5.55 2.66 5.46 1.1 6.07 2.71 5.44 2.83 5.38 1.75 6.05 4 4.69 5.68 3.5 2.68 5.51 2.81 5.44 1.97 6 6.11 3.22 2.83 5.44 2.18 5.79 2.5 5.37 4.78 3.65 4.66 3.52 3.94 4.17 3.1 5.33 5.16 2.85 4.04 4.64 5.58 2.14 5.99.87 5.81.72 4.97 4.12 5.89.68 6.88-.14-4.53-5.77-2.18-5.93-3.57-5.14-3.83-4.94-4.22-4.61-3.8-4.95-3.18-5.61-5.93-2.9-4.16-4.67-3.99-5.09-6.46-1.73-4.69-4.21-2.55-5.81-4.8-4.25-2.44-5.75-1.63-6-2.18-5.99.29-6.36.88-6.26 2.61-5.77 3.56-5.47 5.82-2.83 6.22-.48 6.02-.76 5.62 2.45 6.96-.61 4.33 4.89 5.18 2.96 4.46 3.88 2.93 5.54 6.18 2.01 1.97 6.44 4.06 4.25 5.55 2.74 3.11 5.23 4.65 3.66 3.36 5.01 5.22 3.06 3.49 4.96 5.93 2.14 4.37 3.94 4.16 4.27 4.58 3.78 5.01 3.2 5.14 2.97 5.1 3 6.42.94 4.3 4.86 6.61.75 4.09 5.16 5.47 2.75 5.21 3.2 6.62.99 4.17 4.83 4.44 4.32 4.69 3.9 4.93 3.58 5.16 3.33 3.75 4.92 4.15 4.41 5.41 3.31 3.55 5 4.07 4.61 3.24 5.21 4.55 4.54.18 6.71 3.85 4.91-.11 6.21 3.16 5.24-1.04 6.36 2.39 5.47 2.43 5.52 1.22 5.79.64 5.89 1.39 5.78-.1 5.96 1.53 5.8.9 5.88-.27 5.95-.32 5.93-1.49 5.9 2.75 5.94-2.96 5.82 2.5 6.03-1.5 5.84-.13 5.92-3.33 5.6 2.12 6.16-1.2 5.81-.84 5.84-.09 5.96-1.85 5.69-2.08 6.69.7 7.36-6.32 3.38-5.81-1.21-5.81 1.03-5.82 1.33-5.82-2.56-5.82-.01-5.82 2.55-5.83-2.72-5.81 3.24-5.82-3.07-5.83.86-5.82 1.45-5.82-2.31-5.83.43-5.82-.1-5.79.27-4.33-2.68-1.33-5.76-.48-6.02-1.33-6.13-.27-6.19 2.2-6.18-.57-6.07-3.66-5.72-.12-5.96.64-6.3-1.07-6.05-3.73-5.08-3.55-4.93-2.04-5.69-3.02-5.2-5.11-3.57-2.94-5.35-5.25-3.1-4.55-3.75-4.7-3.56-4.4-4.16-4.31-4.67-5.58-2.44-6.52-.14-5.62-2.64-4.52-4.52-5.29-3.07-6.04-1.77-5.29-3.09-4.32-4.71-5.54-2.68-6.35-1.42-3.51-5.87-5.07-3.4-5.23-3.17-5.6-2.69-3.91-4.98-5.67-2.64-5.31-3.24-4.62-4.15-1.3-6.43-5.96-3.66-3.2-5.09-2.32-5.64-1.95-5.93-3.05-5.26-3-5.29-4.28-4.42-4.4-4.33-3.45-4.98-2.4-5.7-4.26-4.44-2.87-5.38-2.17-5.79-5.26-3.86-1.56-6.13-3.05-5.22-4.44-4.53-2.92-5.38-2.36-5.67-1.04-6.12.53-6.36-1.73-5.71-1.95-5.7-1.96-5.68.66-6.05.62-6.04-3.26-5.52-.79-5.86.56-6-.06-5.92-.24-5.89.21-5.91-2.87-5.75-.61-5.91.27-5.94.01-5.94-.12-5.99 2.02-5.76 2.5-5.51 1.63-5.53.7-6.01 4.37-4.08 3.6-4.45 5.01-3.42 5.94 1.44zM727.68 314.04l-5.74 1.66-4.72 3.91-5.01 4.32-.94 6.55-2.06 5.92-1.17 6.2-3.96 5.1.1 5.99 1.23 6-2.27 5.67 1.09 5.88-.81 5.8 1.48 5.84-3.44 5.78 1.05 5.8-.21 6.05-1.4 5.91-1.92 5.76-3.91 4.91.07 6.75-3.02 5.33-5.41 3.84-3.36 5.01-2.24 5.77-2.29 5.8-5.42 3.64-2.84 5.41-3.16 5.2-1.94 5.95-2.8 5.39-4.36 4.19-3.07 5.06-4.18 4.16-4.35 3.94-6.05 1.79-3.65 4.77-4.51 3.82-5.05 3.04-6 .84-5.74.94-5.18 3.19-5.84.47-5.18-.19 1.02-5.8 5.34-4.1 2.63-5.71 3.93-4.84 3.52-5.16 5.02-3.89 3.76-4.97 3.65-5.17 4.07-4.88 6.57-1.75 3.66-5.55 3.54-4.72 4.78-3.8 3.92-4.73 2.51-5.59-.08-6.33 2.96-5.53.81-6.13-.19-6.31-4.94-4.68-2.07-5.69-5.77-2.02-5.61-1.26-5.99-2.87-6.52.3-5.67 3.26-4.51 4.51-4.7 3.55-4.73 3.53-4.23 4.11-5.17 3.11-3.55 4.82-4.74 3.58-2.11 6.22-4.62 3.7-3.98 4.35-5.62 2.64-4.5 3.78-4.62 3.62-3.51 4.89-4.49 3.8-4.43 3.89-5.79 1.95-4.41 3.94-5.73 1.73-4.32 4.37-5.14 3.35-6.16 1.52-4.52 4.46-5.66 2.43-5.99 1.92-4.4 4.57-5.05 3.46-4.62 4.08-5.18 3.24-4.65 3.95-5.04 3.44-5.7 2.74-3.5 5.25-5.36 3.29-4.83 3.97-3.2 5.36-1.7 6.31-5.29 3.83-2.97 5.4-3.01 5.45-.48 6.1-3.91 4.99 1.39 6.52-1.74 5.62-.63 5.88-4.28 5.11 1.03 6.21.07 5.96-4.07 5.37-.79 5.88.83 6.02-1.31 5.83-.91 5.89 1.76 5.97.96 5.88-.8 5.89-1.73 5.96 3.04 5.76-2.29 6.06 3.48 5.63.21 5.88.1 5.91 1.31 5.77-1.73 6.17 1.64 5.74 1.73 5.72 2 6.7-.42 7.04 5.28 2.76 5.77-.2 5.81 1.88 5.82-1.47 5.82 2.82 5.82-3.2 5.82 1.74 5.83-.87 5.82.24 5.82 1.94 5.82-.45 5.82.11 5.82-2.19 5.83 1.08 5.83 1.18 5.85-.75 4.3-4.29 1.86-5.68-.19-6.13 2.03-6.12-.98-6.18-1.53-6.19 1.71-6.01 1.28-5.92-.42-6.15 1.26-5.93 2.52-5.56 2.57-5.43 1.67-5.85 3.68-4.83 2.21-5.76 4.92-3.81 2.54-5.84 5.48-3.02 3.54-5.2 6.75-.95 3.47-5.69 5.76-2.09 5.49-2.47 6.01-1.28 5.72-2.44 4.6-4.39 5.66-2.4 5.76-2.28 3.72-5.78 6.88-.43 4.49-4.41 5.64-2.54 4.19-4.81 5.17-3.27 6.35-1.56 4.67-4.05 3.7-5.29 6.07-2.17 4.3-4.44 3.51-5.12 5.5-3.6 1.55-6.04 3.57-4.94 3.35-5.03 3.51-4.93 1.26-6.42 4.71-4.15 4.21-4.46 2.06-5.93 4.63-4.16 3.79-4.76 1.54-6.28 3.28-5.08 3.79-4.75 2.52-5.55 4.22-4.52 4.22-4.6.96-6.35 3.55-5.01 3.65-5.1-.64-6.67 3.81-5.25.91-6.1 1.19-5.77.14-5.94 1.45-5.76-2.32-6.27 3.44-5.49.75-5.87-.71-6.02.19-5.9 1.07-5.82-.44-5.94-.44-5.91 2.89-5.8-2.52-5.9 1.69-5.92 1.2-6.04-2.84-5.65.81-6.18-2.98-5.37-3.05-5.04-2.34-5.37-5.19-2.66-4.94-1.96-5.34-1.41z"/></g><g fill="#f2ba8f"><path d="M72.47 312.7l6.27 1.87 5.34 3.94 2.19 6.24 2.03 5.9 4.37 5.2-1.29 6.9 3.45 5.16 1.15 5.76.84 5.81.93 5.82-3.25 5.98 3.2 5.74.48 5.83-1.32 5.84-1.8 5.95 2.1 5.98 1.02 6.07 4.39 4.92.62 6.26 3.74 4.91 3.05 5.2.65 6.67 4.57 4.32 4.22 4.47 3.84 4.72.72 6.89 5.22 3.77 3.55 4.93 3.63 4.91 3.63 4.9 2.26 5.39 2.31 5.65 5.79 2.6 2.51 5.81 5.89 2.06 4.04 4.31 5.93 1.38 3.75 5.36 6.03.8 5.4 2.15 5.76.85 5.54 2.41 5.03-1.28-2.09-4.92-4.37-4.61-2.07-6.07-4.08-4.75-3.44-5.23-4.17-4.65-3.35-5.43-5.65-3.21-3.84-5.07-5.75-2.78-4.6-4.27-3.41-5.06-5.02-3.72-3.55-5.02-2.31-5.71-2.03-5.79.86-6.26-.35-5.84.43-5.87 1.61-5.68 1.81-6.56 6.74-1.24 5.55-2.69 6.31-1.18 6.31 1.22 5 4.17 4.75 3.67 5.62 2.47 3.5 4.95 5.44 2.76 2.53 5.9 4.52 3.75 5.46 2.84 3.12 5.2 4.63 3.68 3.34 5 5.81 2.46 4.06 4.25 5.33 2.84 4.4 3.83 4.15 4.15 4.24 4.08 4.83 3.32 4.23 4.3 5.55 2.17 4.34 4.41 6.08 1.55 6.34 1.2 4.02 5.34 5.94 1.96 5.12 3.37 4.51 4.35 4.86 3.73 5.12 3.28 5.63 2.58 4.91 3.63 6.03 2.25 4.29 4.47 2.99 5.77 5.9 2.73 2.4 6.06 4.11 4.45 5.41 3.62 3.78 4.93.71 6.64 5.38 4.3.79 6.07.34 6.06 1.03 5.82 1.28 5.73 4.64 4.96-.65 6.19.34 5.93 1.23 5.76-.3 5.97 1.56 5.73 1.08 5.8.32 5.88 2.49 5.8-2.23 5.97.44 5.89 1.23 5.91-1.77 5.85-1.04 5.84 1.92 6.03-1.63 5.79-.02 5.92-.36 5.9-2.63 5.62 1.63 6.16-1.4 5.77-1.66 5.73-1.27 6.8-.52 6.93-5.31 4.21-5.83-.62-5.81.27-5.82-1.15-5.82-.61-5.82 1.22-5.82 1.24-5.83-2.11-5.82 2.4-5.82.68-5.82-.24-5.82-1.25-5.82-.75-5.83.96-5.83-.2-5.84.29-4.03-4.19-.73-5.77-3.93-5.75 2.38-6.25-1.62-6.21.66-6.16.49-6.04-.77-6.01-.84-5.98.07-6.25-3.51-5.3-1.72-5.8-2.44-5.53-2.31-5.67-3.57-4.96-3.44-5.05-5.39-3.28-5.23-3.14-4.35-3.99-4.94-3.25-4.2-4.46-5.22-2.96-5.59-2.18-4.93-3.7-6.19-1.27-5.61-2.52-5.42-2.88-5.41-2.9-4.73-4.06-4.1-5.08-6.9-.45-3.57-5.84-6.01-1.95-4.38-4.46-4.97-3.56-6.07-2.01-5.46-2.95-4.64-4.06-4.24-4.51-3.78-4.88-4.8-4.07-1.82-5.91-4.53-4.37-1.34-6.27-2.73-5.46-4.13-4.55-4.36-4.37-2.91-5.35-4.87-4-2.43-5.68-1.64-6.22-4.94-3.97-4.71-4.16-2.43-5.67-2.24-5.74-4.64-4.31-1.54-6.11-3.72-4.9-3.33-5.18-.49-6.4-2.56-5.51-2.59-5.63 1.26-6.37-3.16-5.54-.19-5.92-1.16-5.8-1.2-5.8.06-5.96-.81-5.86-.9-5.84-1.37-5.8 2.21-6.13-.83-5.84-.88-5.85.89-5.92-.21-5.87.53-5.85-2.05-6.04 3.05-5.58-1.95-6.37 2.83-5.44 3.39-4.94 1.6-5.99 5.86-2.2 4.9-2.4 5.64-2.12zM710.63 311.85l-5.76 3.46-3.71 4.97-5.44 3.83-.96 6.49-1.63 6.03-2 5.95-2.11 5.46-.51 5.81-1.18 5.72 1.3 5.92-1.65 5.73-.51 5.82 1.31 5.84-.24 5.82-.8 5.84-.44 6.14-3.87 5.27-.47 6.17-.81 6.26-5.13 4.29-1.34 6.15-2.13 5.84-4.53 4.34-3.46 4.99-4.67 4.15-2.85 5.41-3.66 4.86-2.35 5.74-2.1 5.83-4.12 4.58-4.7 3.78-3.75 4.34-2.28 5.76-5.98 2.12-2.49 6.06-5.01 3.11-5.19 2.73-5.54 1.96-5.04 2.96-5.31 2.61-5.66 1.82-6.05-.78-4.79-.05 2.39-4.63 2.3-5.88 4.01-4.83 2.11-6.23 4.98-4.06 3.21-5.53 5.95-3.01 4.82-3.94 3.83-5 4.53-4.33 5.79-2.64 4.54-4.34 2.69-5.69 2.38-5.58 3.21-5.08 1.77-5.73 1.37-5.86-.41-5.98.36-6.12-1.53-5.99-3.36-5.63-6.09-2.32-5.76-2.75-6.28 1.4-6.42-.46-6.01 2.3-4.48 4.62-3.79 4.63-4.46 3.79-3.85 4.48-4.85 3.39-4.41 3.88-3.95 4.36-4.79 3.53-3.99 4.33-5.41 2.88-2.34 6.05-5.1 3.17-4.95 3.29-3.4 5.07-6.2 1.67-3.54 5.01-5.32 2.64-5 3.03-5.15 2.74-5.22 2.66-4.55 4.49-6.42 1.05-4.71 4.12-5.1 3.42-5.72 2.36-4.22 4.84-5.53 2.69-5.54 2.72-5.25 3.19-4.34 4.44-4.33 4.36-4.89 3.65-6.27 2.25-2.8 5.91-3.77 4.81-3.76 4.77-5.46 3.61-.92 6.69-5.8 3.76.29 6.87-5.09 4.47-.11 6.16-.67 5.93-.45 5.95-2.07 5.54-3.59 5.27.51 6.12-1.73 5.69.29 6 .04 5.92-1.43 5.76-2.37 5.76 1.05 5.97-.48 5.89 1.4 5.9-.31 5.89 1.35 5.83-2.95 6.04 1.58 5.82 1.71 5.78.84 5.82-.49 5.97 1.83 5.72-.19 5.96-.05 5.97.03 5.95 1.28 6.8 1.29 7.05 6.2 2.51 5.77 3.04 5.81-2.32 5.82.53 5.82-.73 5.82-.38 5.82.01 5.82-.79 5.82 1.36 5.82-.94 5.83 1.43 5.82.87 5.82-.28 5.83-2.52 5.82.73 5.84 1.15 6.01-2.78-.54-6.73 1.51-5.96 1.83-6.18-2.04-6.16.35-6.19 2.18-5.91-2.48-6.22 3.43-5.56-.61-6.26.62-6.16 2.64-5.54 4.99-4.3 2.55-5.34 2.01-5.84 5.06-3.63 2.63-5.66 5.26-3.19 3.19-5.55 5.98-2.05 4.01-4.93 5.67-2.29 6.11-1.14 5.56-2.29 4.95-3.89 5.36-2.93 5.8-2.17 4.43-4.59 5.8-2.2 5.79-2.27 5.41-2.91 5.23-3.21 4.54-4.3 4.62-4.11 4.9-3.66 6.16-1.89 3.85-5.11 4.28-4.4 6.3-2.03 3.41-5.3 4.95-4.04 3.49-4.96 1.36-6.19 3.13-5.19 4.98-4 2.97-5.27 2.57-5.56 3.62-4.85 3.72-4.8 4.06-4.56 3.19-5.17.55-6.94 6.15-3.19 2.67-5.51 1.65-6.1 4.6-4.31 4.03-4.72 2.91-5.39.65-6.43 1.12-6.04 2.79-5.36.98-5.92 1.83-5.73.42-5.9.05-5.95 2.67-5.59 1.79-5.71-.93-6.08-.01-5.94.88-5.82 1.08-5.81 1.68-5.77 1.26-5.85-.14-5.94-.07-5.93-1.12-5.91.9-5.94.66-6-3.77-5.51.73-6.09-.51-6.07-4.97-4.31-2.99-4.67-2.95-5.24-5.41-2.73-6.15-1.22z"/></g><path fill="#b74701" d="M232 297.03l4.4 3.8 2.24 5.15 4.25 3.81 3.25 4.47.46 6.53 6.1 2.36 2.75 4.76 3.95 3.81 2.57 4.95 2.65 4.93 3.65 4.08 4.56 3.24 2.21 5.22 6.09 1.5 1.12 6.36 4.57 2.96 3.52 4.02 5.66 1.75 4.13 4.46 3.29 5.44 5.54 2.89 4.37 4.25 4.9 3.61 3.42 4.76 4.64 3.25 5.05 2.69 4.36 3.59 5.45 2.1 5.01 3.88 5.05 3.83 5.62 2.98 4.17 5.2 5.11 2.09 4.72 2.66 4.82 2.49 3.75 4.36-.07 4.92 1 8.33 7.01.75 6.39-.56 6.33.22 6.39-1.73.28 1.76 5.82 1.02 1.16-2.08 5.43.39 1.18.26 5.5-2.84 5.69-2.34 4.92-3.07 5.1-2.71 5.77-1.55 4.28-3.47 4.15-3.65 4.01-3.83 4.25-3.4 6.42-1.74 6.14-2.27 4.12-5.2 5.68-2.97 4.83-2.97 3.64-4.58 5.66-1.91 4.24-3.76 2.76-5.58 6.13-2.12 4.71-3.85 4.85-3.71 3.88-4.79 5.21-3.32 2.22-5.41 4.71-2.77 2.57-4.95 5.8-1.75 2.91-4.59 3.56-3.95 3.41-4.29 4.01-3.76 2.88-4.73 3.27-4.39 5.45-2.63 3.07-4.57 2.45-5.13 2.25-5.22 3.42-4.37 2.74-4.84 3.55-4.3 2.19-5.16 2.36-5.07 2.98-4.7 5.25-3.53 2.18-5.2 1.09-5.7 2.93-4.81 1.88-5.33.47-5.87 5.3-4.05-.69-6.2 3.02-4.97.41-5.74 1.26-5.58.26-5.78 2.82-5.28 1.77-5.54.46-5.75.4-5.74 1.25-5.37-1.47-5.51 1.62-5.42-.04-5.47-2.9-5.23.81-5.52-1.28-5.27 1-5.98-3.6-4.81-2.38-5.05-1.24-5.47-1-5.69-4.8-3.79-2.96-4.65-1.32-5.65-4.82-3.25-3.42-4.18-1.27-6.22-5.48-2.33-2.46-5.47-5.58-1.92-3.37-4.77-4.82-2.88-6.06-.64-4.94-2.33-4.45-3.42-5.28-1.6-4.88-2.72-5.42-2.13-5.75-.96-5.57-1.82-5.88.1-5.81.17-5.76-1.9-5.69-.32-5.8.36-5.27 4.02-6.18-2-5.05 3.64-5.77.59-5.4 1.94-6 .62-4.31 3.98-5.19 2.1-4.51 3.32-5.09 2.43-4.04 3.92-2.9 5.13-6.36 1.27-2.84 5.97-4.05 4.71-3.67 4.68-4.49 3.95-3.37 4.94-4.47 3.98-3.96 4.46-2.92-5.35-3.57-4.76-6.54-2.18-1.56-6.52-4.39-4.05-4.79-4.09-4.37-4.41-3.72-4.16-4.06-3.83-5.27-2.22-4.87-2.6-4.41-3.35-4.84-2.64-5.14-2-4.77-3.41-5-3.21-5.76-.98-5.43-2.25-5.75-.95-6.05 1.96-5.66-.47-5.55-2.33-5.78 1.52-5.76.59-5.6 1.55-5.81.26-6.08-.38-4.66 4.66-6.28-1.19-4.98 2.61-3.91 4.65-6.47-.34-4.54 3.34-3.24 5.09-4.1 3.65-5.58 1.82-3.11 4.71-4.88 2.88-2.19 5.37-3.59 4.07-3.66 4.07-3.46 4.27-2.86 4.79-1.18 5.64-3.94 4.3-.22 5.87-4.29 4.43.7 5.98-1.24 5.38-1.16 5.25-1.05 5.32-.3 5.4 1.12 5.42-.39 5.38-1.79 5.51.06 5.47 1.77 5.61 1.66 5.56-1.22 6.02 2.5 5.38 2.52 5.3 1.43 5.52-.37 5.95 3.42 4.83.43 5.79 3.75 4.61 1.55 5.42-.5 6.35 4.84 3.95 1 5.72 4.05 4.2.31 6.19 3.46 4.5 2.91 4.79z"/><path fill="#e87722" d="M200.75 294.9l4.4 3.79 2.24 5.15 4.25 3.81 3.24 4.47.47 6.53 6.1 2.37 2.75 4.75 3.95 3.81 2.57 4.95 2.65 4.93 3.65 4.09 4.56 3.24 2.21 5.21 6.09 1.5 1.12 6.37 4.57 2.96 3.52 4.02 5.66 1.74 4.13 4.46 3.29 5.44 5.54 2.89 4.37 4.25 4.9 3.61 3.42 4.76 4.63 3.25 5.06 2.69 4.36 3.6 5.45 2.09 5 3.88 5.06 3.83 5.62 2.98 4.17 5.2 5.11 2.09 4.72 2.66 4.82 2.49 3.75 4.36 4.71 3.45 5.15 2.68 5.15 2.68 5.71 2.37 5.57 2.8 1.61-1.71 5.25 2.77 1.16-.33 4.81-3.23 1.56 1.16 5.97-1.68 5.32-3.13 5.3-2.34 4.85-3.18 5.05-2.8 5.45-1.47 4.23-3.54 4.1-3.7 3.97-3.86 4.96-3.97 6.4-1.83 6.1-2.35 4.06-5.26 5.08-2.62 4.79-3.03 3.59-4.62 5.64-1.97 4.2-3.82 3.01-5.89 6.1-2.19 4.67-3.91 4.8-3.77 3.82-4.84 4.6-2.88 2.16-5.43 4.67-2.83 2.52-4.98 5.77-1.82 2.84-4.63 3.6-4.13 3.36-4.33 3.96-3.81 2.81-4.78 3.19-4.43 5.41-2.72 3.04-4.7 2.37-5.17 2.16-5.26 3.34-4.43 2.64-4.88 3.47-4.37 2.11-5.24 2.25-5.12 2.89-4.76 5.17-3.64 2.07-5.25.96-5.72 2.83-4.92 1.74-5.38.32-5.87 5.21-4.19-.85-6.18 2.88-5.04.27-5.85 1.1-5.62.1-5.79 2.66-5.35 1.61-5.59.29-5.76.21-5.44 1.1-5.41-1.65-5.46 1.41-5.47-.28-5.47-3.15-5.08.53-5.56-1.59-5.34.7-6.01-3.85-4.63-2.64-4.91-1.51-5.4-1.3-5.63-4.98-3.55-3.13-4.41-1.61-5.58-4.97-3-3.63-4.01-1.58-6.15-5.59-2.05-2.73-5.34-5.7-1.68-3.61-4.6-4.96-2.63-6.09-.33-5.05-2.07-4.61-3.19-5.36-1.34-5.26-2.54-5.53-1.84-5.79-.65-5.66-1.52-5.87.4-5.79.47-5.66-1.6-5.82-.03-5.78.66-5.05 4.29-6.28-1.67-4.85 3.9-5.74.89-5.29 2.22-5.79.85-4.11 4.19-5.08 2.37-4.33 3.53-4.96 2.69-3.83 4.12-2.65 5.27-6.75 2.1-2.51 6.13-3.86 4.5-3.67 4.68-4.49 3.96-3.38 4.94-4.53 4.01-3.91-4.55-2.9-5.34-3.57-4.76-6.55-2.19-1.55-6.51-4.62-4.28-5.01-3.83-4.1-3.72-3.93-3.96-4.24-3.62-5.38-1.95-5-2.35-4.57-3.11-4.97-2.4-5.4-1.8-4.94-3.16-5.16-2.94-5.8-.68-5.54-1.95-5.79-.66-5.95 2.27-5.54-.18-5.85-2.03-5.7 1.81-5.72.9-5.51 1.83-5.78.57-6.1-.05-4.16 4.8-6.34-.87-4.84 2.86-3.67 4.84-6.47-.01-4.37 3.56-2.99 5.25-3.87 3.81-5.48 2.1-2.87 4.86-4.73 3.12-1.92 5.47-3.38 4.24-3.45 4.25-3.3 4.52-2.61 4.93-.88 5.69-3.72 4.5.08 5.87-4.06 4.64 1.01 5.94-.94 5.29-.89 5.32-.79 5.36-.07 5.41 1.33 5.38-.21 5.4-1.63 5.56.25 5.78 1.94 5.55 1.82 5.51-1.05 6.06 2.66 5.31 2.67 5.22 1.55 5.38-.2 5.96 3.54 4.74.58 5.78 3.86 4.52 1.68 5.37-.36 6.32 4.93 3.83 1.12 5.7 4.14 4.12.44 6.18 3.6 4.4z"/></svg>
