<?xml version="1.0" encoding="UTF-8"?>
<svg xmlns="http://www.w3.org/2000/svg" data-name="Layer 1" viewBox="0 0 800 800" width="800" height="800"><g fill="#b74701"><path d="M299.92 188.27l-4.39 3.96-5.2 3.11-3.64 4.91-.91 6.06-.17 5.85.24 5.83.4 6.28 5.26 4.08.8 6.22 1.21 6.03 5.34 4.04 1.21 6.02 3.83 4.76 2.11 5.59.35 6.44 4.86 4.27.38 6.42 4.69 4.36.36 6.43 3.28 5.03 5.08 4.18.79 6.23 3.41 4.98 1.99 7.51 1.37 5.6-4.1 4.49-5.74-.5-4.83-3.17-1.82-7.6-2.15-5.57-4.89-4.25-2.69-5.32-3.33-5-1.29-5.99-3.61-4.87-2.4-5.45-1.41-5.93-1.62-5.83-4.31-4.53-2.6-5.36-1.65-5.82-2.04-5.62-3.72-4.82-1.76-5.77-3-5.18-1.6-5.8-5.16-4.1.15-6.65-5.32-4.02-.84-6.17-2.09-5.57-2.3-5.48-1.95-5.64-4.57-4.39-2.86-5.14-4.77-3.41-4.7-3.26-5.22-2.78-5.9-2.27-5.75 2.95-6.61-.47-4.17 4.94-4.89 3.64-1.5 6.05-2.52 5.23-3.04 5.8 2.24 5.99 3.71 4.85-.05 6.62 3.32 4.99 1.31 5.97 4.39 4.48 1.12 6.06 3.8 4.77 1.02 6.1 5.86 3.78.11 6.54 3.72 4.81 3.33 4.99 2.04 5.62 3.63 4.85-.07 6.63 2.66 5.32 4.46 4.44 1.14 6.05 4.16 4.6 2.2 5.54.4 6.4 3.85 4.75 1.86 5.7 5.1 4.15-.05 6.63 4.73 4.33 2.07 7.47 2 6.37-6.02 2.72-4.92.3-4.8-2.76-3.29-6.88-2.32-5.48-1.53-5.86-3.67-4.84-4.36-4.5.25-6.72-4.41-4.48-3.63-4.85-1.15-6.05-1.26-5.99-5.3-4.05-2.08-5.61.25-6.72-3.8-4.77-2.52-5.39-1.57-5.85-3.65-4.84-2.54-5.38-2.73-5.28-4.26-4.56-.6-6.31-1.67-5.81-3.65-4.84-1.46-5.9-2.68-5.33-4.36-4.51-1.25-5.74-1.87-5.44-5.51-3.7-2.33-5.23-3.15-4.64-3.41-4.61-5.22-2.38-4.5-5.27-6.35.25-6.27.07-5.76 2.49-3.66 5.31-5.51 2.74-4.12 4.71-2.31 5.88-.41 6.3.5 6.27 3.2 5.43 3.95 4.44.5 6.09 3.55 4.64 1.43 5.66 4.54 4.41 2.71 5.29 1.21 6.01 2.27 5.5 3.17 5.08 2.58 5.35 2.02 5.62 2.2 5.54 4.86 4.26 1.57 5.84 2.08 5.59 1.02 6.11 4.33 4.51 3.53 4.91 1.3 5.97 2.4 5.43 1.09 6.07 4.95 4.22.87 6.18 4.14 4.61 1.75 5.76 1.17 6.03 4.97 4.21 1.13 6.06 4.28 4.55 1.72 7.64 1.85 5.89-5 3.68-5.72.84-3.15-4.61-3.82-6.62-1.99-5.64-2.67-5.31-3.8-4.77-2.69-5.3-2.1-5.59-3.06-5.13-1.5-5.87-3.92-4.71-1.91-5.69-3.25-5.03-2.37-5.46-3.03-5.14-3.09-5.12.16-6.67-4.95-4.22-1.82-5.72-2.31-5.49-2.6-5.34-3.79-4.78-.53-6.35-5.1-4.15.34-6.76-3.94-4.71-1.88-5.7-4.73-4.34-1.47-5.95-4.39-4.12-5.59-2.12-5.04-3.47-6.06-1.14-5.86 1.99-6.02.98-3.72 5.12-6.12 2.24-1.65 6.07-3.82 5.04.57 6.21-.36 6.16 2.72 5.52 1.87 5.69 4.79 4.28 1.11 6.06 3.32 4.98 1.59 5.83 2.04 5.6 3.3 5 1.07 6.07 5.75 3.82 1.32 5.95 1.9 5.67 4.44 4.45.15 6.51 2.96 5.17 3.87 4.72.58 6.31 5.34 4.02.97 6.12 1.12 6.05 4.51 4.42 2.59 5.34 1.89 5.68 4.5 4.43 2.32 5.47 1.3 5.96.75 6.23 3.55 4.89 1.97 5.63 4.28 4.54 3.27 5.02 1.55 5.85 1.85 5.7 3.43 4.94.92 6.14 2.96 5.17 4.04 4.65 3.36 4.98 1.65 5.8 3.04 5.13 3.06 5.12 2.04 5.61 2.34 5.48 1.25 6 1.26 8.26-8.57 3.16-5.84-1.26-5.82-1.34-5.81-1.38-5.94-.55-5.8-1.41-5.74-1.89-5.83-1.28-6.08.34-5.79-1.52-6.17.88-5.61-2.67-5.8-1.46-6.27 1.48-5.54-3.17-6.34 2.23-5.86.83-4.93 3.16-6.62 1.56-1.79 6.38-4.87 4.61.27 6.5-1.78 6.39 2.82 5.93 2.09 6.26 6.47 2.43 4.94 3.32 4.62 4.32 4.94 3.71 6.29 1.05 4.51 4.54 6.8.05 4.18 5.19 5.94 1.74 6.32.99 5.17 3.25 4.46 4.66 5.49 2.61 6.06 1.51 5.01 3.57 6.24 1.14 5.6 2.42 4.23 5.1 5.8 2 5.01 3.57 5.86 1.89 6.04 1.54 4.06 5.46 5.67 2.27 5.43 2.76 6.75.15 4.96 3.69 5.26 2.67 5.67 1.73 5.18 2.89 4.99 3.68 6.11.37 5.52 2.27 5.82 1.16 5.62 2.15 5.93.67 5.86 1.08 6.17-2.43 5.7 3.52 5.96.43 5.94-1.37 5.82-2.04 6.09 2.22 5.94-.55 5.68-2.17 5.67-1.82 6.01-.16 5.76-1.39 5.86-1.15 5.5-2.28 5.68-1.76 5.39-2.52 4.84-3.65 4.01-2.92 6.27-.68 5.81-1.71 5.19-2.96 4.73-3.77 5.17-2.94 4.01-4.78 5.86-1.87 3.87-4.8 5.72-2.23 4.23-4.21 5.55-2.69 3.89-4.58 5.18-3.35 1.42-6.64 4.68-3.84 2.26-5.61 3.9-4.51 3.87-4.69 2.47-5.46.91-6.02 1.51-5.71.61-5.9 1.17-5.74 3.02-5.63-.33-6.01.84-5.98-1.27-5.92-1.66-5.81 1.42-6.18-.57-5.99-4.19-5.2.39-6.21-2.7-5.41-.61-6.03-1.01-5.97-1.97-5.65-2.8-5.31-4.6-4.51.48-6.73-3.5-4.95-1.95-5.72-2.92-5.26-4.82-4.34-.51-6.41-2.35-5.53-3.74-4.86-2.65-5.38-3.66-4.9-.32-6.5-5.11-4.2-2.76-5.34-2.78-5.32-2.03-5.68-2.63-5.4-2.32-5.54-.53-6.41-4.33-4.57-3.33-5.07-.4-6.46-4.94-4.29-.58-6.38-1.51-5.94-3.87-4.8-2.73-5.36-4.55-4.47-.76-6.3-3.73-4.87-1-6.18-2.38-5.52-4.15-4.67-.79-6.28-4.18-4.65-.95-6.21-4.93-4.3-.86-6.25-3.36-5.05-3.5-4.98-3.2-5.13.11-6.73-3.31-5.08-2.29-5.88-6.11-2.44-5.19-2.39-5.23-1.97-5.57-3.62-5.68 3.16-5.81 1.01z"/><path d="M516.96 193.65l4.44 3.75 3.76 4.19 5.8 3.38-.24 6.47.39 5.72.09 5.83-1.53 5.74-1.53 5.87-3.16 5.08-4.05 4.67-3.19 5.07-1.77 5.75-1.52 5.88-4.26 4.55-1.47 5.9-1.84 5.72-1.52 5.88-4.77 4.32-2.66 5.33-.72 6.26-2.86 5.24-3.3 5.02-2.94 5.2-1.67 7.67-2.07 5.37 4.94 2.94 5.1 1.22 5.77-2.9 2.54-7.25 1.75-5.76 2.98-5.17 2.15-5.58 4.18-4.6 2.71-5.3 1.01-6.12 3.86-4.75.04-6.58 3.03-5.15 4.71-4.35.73-6.25 1.88-5.71 4.53-4.43 2.33-5.49 3.64-4.87.61-6.32 2.24-5.49 2.73-5.27 4.4-4.46 1.8-5.71 3.94-4.69 1.61-5.8 3.5-4.9.82-6.19 3.12-5.08 1.38-6.35 5.69-2.99 4.93-3.34 5.6-2.09 5.96-1.37 6.24.13 5.13 3.73 5.36 2.64 4.41 4.12 3.37 5.06 2.75 5.57-1.05 6.23 1.18 6.24-3.86 5.08-3.16 5.07-1.39 5.92-2.88 5.21-3.19 5.05-2.62 5.33-2.45 5.42-1.95 5.66-3.83 4.74-1.02 6.11-4.23 4.56.37 6.77-3.14 5.08-2.97 5.17-2.92 5.19-3.73 4.8-.54 6.33-5.17 4.11.08 6.63-3.69 4.82-2.98 5.16-1.61 5.83-3.18 5.06-.98 6.13-3.67 4.84-4.44 4.47-.76 8.1-1.43 5.28 3.05 6.07 6.27-2.44 3.11-3.61 5.42-5.85 1.55-5.85 3.34-4.99 3.43-4.95.57-6.32 4.3-4.53 2.42-5.43 3-5.16 1.91-5.68 2.1-5.58 3.08-5.12 1.22-6.01 2.63-5.33 2.96-5.18 2.58-5.36 3.5-4.91 3.36-4.98 2.86-5.23 1.23-6 3.77-4.79 1.75-5.76 1.17-6.04 3.52-4.91 1.53-5.86 3.24-5.05 3.81-4.78.24-6.22 4.12-4.37 2.81-4.99.74-5.99 4.21-4.57 3.57-5.06 5.34-3.17 6.43.53 5.55-2.62 6.08.32 5.19 3.25 4.42 3.72 5.81 2.53.93 6.35 3.8 4.81 1.26 5.99-.43 6.17-1.43 6.16-3.55 4.63-2.29 5.24-3.68 4.58-1.02 5.85-3.91 4.71-1.26 5.99-4.07 4.64-1.1 6.06-3.6 4.87-3.49 4.91-1.48 5.89-3.37 4.97-3.19 5.06-1.13 6.06-2.4 5.44-2.87 5.21-1.7 5.78-2.88 5.22-3.59 4.86-2.19 5.54-1.16 6.04-3.9 4.72-1.28 5.99-5.13 4.13-.13 6.53-3.32 5-1.54 5.86-3.94 4.71-2.7 5.31-1.57 7.71-1.15 4.7 3.81 2.99 4.81 1.43 5.24-2.98 2.31-7.36 1.95-5.65 4.06-4.64.74-6.24 3.35-4.98 2.86-5.22 3.02-5.14 1.23-6.01 4.8-4.28 1.19-6.03 4.36-4.5 1.61-5.82 2.52-5.38 1.88-5.7 3.82-4.75.91-6.16 2.78-5.26 3.18-5.06 1.5-5.88 1.85-5.71 5.9-3.76 2.58-5.36-.11-6.65 4.48-4.45 2.23-5.53 3.1-5.12.99-6.46 4.68-4.16 5.38-3.06 5.97-1.3 5.95-.77 5.84 1.22 5.13 2.79 5.04 2.72 5.26 3.11 2.51 5.51 3.43 5.24.01 6.21-.93 6-2.76 5.33-.82 6.19-5.14 4.12-2.07 5.58-1.33 5.95-1.66 5.79-4.11 4.61-1.43 5.89-3.12 5.08-2.81 5.23-1.07 6.07-3.9 4.71-2.75 5.26-4.09 4.62-2.76 5.26-1.81 5.71-.39 6.39-4.74 4.31-2.42 5.42-1.81 5.72-2.84 5.22-2.49 5.38-2.72 5.28-1.84 5.7-3.5 4.91-1.73 5.76-2.12 5.56-5.15 4.12-1.05 6.08-1.94 5.65-3.63 4.85-1.06 6.08-1.94 5.65-3.16 5.07-5.13 4.12-.72 6.24-3.68 4.82-2.92 5.19-2.56 5.36-2.65 5.32-.91 6.15-4.08 4.63-3.1 5.11-.38 6.42-.68 8.18 8.06 1.94 6.12.56 6.01-.08 5.86-1.1 5.38-4.13 5.85-1.13 6.18.99 5.88-.97 6-.2 5.48-3.5 6.43 2.56 5.75-1.76 5.69-2.22 5.82-1.35 6.12.5 6 .93h5.94l5.4 2.51 5.51 2.93 2.96 5.48 1.55 5.84 1.98 5.66-.98 5.91-1.04 5.77-1.74 6-5.65 2.91-3.86 5.24-5.8 2-5.22 3.14-5.72 2.18-5.28 3.03-6 1.6-4.83 3.94-4.78 4.01-6.16 1.3-4.93 3.73-6.02 1.57-6.07 1.48-4.05 5.47-6.28 1.06-4.65 4.29-5.71 2.19-5.71 2.17-5.18 3.23-5.42 2.78-5.84 1.94-4.72 4.14-6.27 1.09-5.18 3.23-5.38 2.85-5.6 2.43-4.52 4.57-5.27 2.8-5.77 1.71-6.45-.25-4.95 3.62-6.11.21-4.93 4.3-6.09.03-5.8 1.13-5.69 1.84-5.87.92-5.9.66-5.98-.66-5.92-1.29-5.9 1.81-5.93.14-5.86-1.12-6 .35-5.49-3.24-6.36 1.94-5.47-2.8-6.22.31-4.74-4.85-5.64-1.63-5.73-1.46-6.3-.28-4.86-3.68-4.17-2.58-5.14-2.98-6.51-.33-5.28-2.8-4.94-3.4-3.99-4.93-4.9-3.32-6.16-1.43-4.96-3.33-3.19-5.63-6.23-1.73-3.13-5.44-3.78-4.56-4.68-3.66-3.59-4.67-3.55-4.67-3.02-5.03-3.45-4.76-5.36-3.9.76-6.85-2.89-5.18-1.68-5.63-3.42-5.3-.18-6.05 1.08-6.06-1.71-5.81.68-5.92-.44-5.94 1.53-5.8 1.29-5.77-1.73-6.31 4.02-5.21-.9-6.32 3.04-5.32 1.12-5.85 1.99-5.59 1.25-5.88 1.56-5.79 2.56-5.4 2.57-5.38 2.05-5.63 5.25-4.14 1.58-5.89 1.91-5.74 1.53-5.92 4.36-4.56.65-6.35 5.81-3.86.72-6.31 2.33-5.53 3.51-4.97 1.99-5.7 1.88-5.76 2.53-5.43 3.5-4.98 1.85-5.77 4.57-4.46-.01-6.67 3.56-4.95 4.48-4.5 1.96-5.72.3-6.51 4.08-4.7 2.98-5.23 3.62-4.92 1.47-5.96 1.88-5.76 2.92-5.26 4.45-4.52.93-6.22 2.7-5.36 1.69-5.84 5.15-4.19.63-6.36 4.64-4.43 1.4-5.99 3.81-4.84.34-6.5 2.73-5.35 4.12-4.69 2.07-5.68 3.99-4.24 1.96-6.44 5.93-2.12 5.95-.71 5.66-.62 6.03-1.08 5.29 2.94z"/></g><path fill="#f2ba8f" d="M282.49 186.39l-5.58 2.81-4.6 4.33-.33 6.82-3.71 4.84-1.47 5.97.96 6.08.99 6.27 3.37 4.99 3.05 5.13 2.48 5.42 4.55 4.42.42 6.41 2.92 5.2 3.74 4.8 1.15 6.05 1.89 5.7 4.67 4.37 1.52 5.87 3.07 5.14 2.83 5.24.83 6.21 4.77 4.33 2.06 5.62 2.61 7.22-.12 5.48-3.07 4.88-6.03.25-3.92-4.27-3.56-6.76-1.54-5.86-2.02-5.64-3.68-4.84-3.7-4.83-.67-6.28-4.74-4.33-3.18-5.07-2.37-5.47-1.44-5.91-1.91-5.69-3.44-4.95-2.4-5.46-2.83-5.25-1.5-5.89-1.64-5.82-5.58-3.94-.32-6.42-4.1-4.6-2-5.62-2-5.61-2.79-5.24-2.53-5.36-1.29-5.96-4.25-4.54-2.18-5.54-3.13-5.21-3.85-4.89-5.4-3.11-5.77-2.41-6.25 1.09-5.54 1.99-5.38 1.62-4.59 3.22-5.1 3.01-3.18 4.98-1.5 5.68-2.2 5.77 2.38 5.73 2.3 5.25 2.67 5.31 2.71 5.28 1.56 5.85.54 6.33 5.47 3.96-.18 6.69 4.03 4.65 1.4 5.92 2.45 5.42 4.26 4.55 3.36 4.98 2.26 5.51 1.95 5.66 1.76 5.75 3.76 4.79 1.49 5.87 4.15 4.6.67 6.28 2.02 5.62 3.44 4.95 3.65 4.84 2.02 5.63 4.15 4.6 1.48 5.9.65 6.3 4.99 6.06 1.86 6.58-5.3 4.51-6.11-.72-5.79-2.96-1.82-7.6-3.5-4.91-3.28-5.03-.76-6.23-3.1-5.11-3.5-4.91-.45-6.39-4.74-4.32-2.01-5.63-2.89-5.21-2.94-5.19-1.82-5.72-2.66-5.33-2.77-5.26-3.27-5.03-.1-6.55-2.94-5.19-3.08-5.12-1.6-5.83-2.74-5.29-2.22-5.53-4.77-4.31-.42-6.4-5.33-4.05-1.4-5.93-1.45-5.92-4.18-4.33-.35-6.17-2.7-5.04-4.25-4.31-2.77-5.14-4.1-4.21-4.23-4.7-6.33-.31-5.83-.77-5.74 1.18-6.64-.57-4.75 4.22-2.87 5.53-4.7 4.04-.72 6.09-1.34 5.79 2.18 5.6-1.18 6.78 3.51 4.65 3.16 4.82 2.53 5.13 2.46 5.16.98 6.12 5.26 4.07 2.47 5.41.14 6.52 2.45 5.42 3.78 4.77 3.83 4.76.42 6.39 3.23 5.04 2.82 5.24 3.97 4.69 2.9 5.2 1.53 5.86 3.28 5.02 2.33 5.48 2.43 5.42.3 6.45 4.12 4.62 3.34 4.99 2.89 5.21 1.14 6.05 1.73 5.76 4.28 4.55 2.22 5.54 1.78 5.74 5.19 5.98-1.99 6-2.85 4.54-5.54.01-4.45-3.4-2.15-7.43-3.12-5.09-3.56-4.89-3.38-4.97-.11-6.54-4.9-4.25-3.35-4.98-1.34-5.95-1.84-5.72-2.68-5.3-4.43-4.47-.83-6.2-2-5.64-1.96-5.66-5.48-3.96-.92-6.16-3.89-4.72-2.87-5.22-.15-6.53-1.76-5.75-3.32-5-3.41-4.96-2.38-5.46-2.22-5.54-2.77-5.27-1.43-5.92-4.17-4.76-3.86-4.95-6.62-.7-5.19-2.49-5.76-.35-6.13-1.32-5.97 1.76-5.54 2.99-3.38 5.37-3.09 5.15-1.57 5.75-2.4 5.86 1.63 6.04.78 6.32 4.32 4.51 2.96 5.16 1.07 6.07 4.07 4.63 1.94 5.66 1.32 5.95 4.04 4.64 2.76 5.25 3.35 4.98 2.3 5.48 2.93 5.17 2.2 5.53 1.13 6.04 3.93 4.7 1.24 5.99 1.76 5.74 3.41 4.95 4.69 4.33.44 6.38 2.63 5.32 2.28 5.49 3.86 4.73.5 6.35 5.37 4.01 2.33 5.47 3.24 5.03-.25 6.71 4.53 4.41 3.51 4.9-.37 6.78 2.48 5.39 3.84 4.75 1.78 5.74 2.02 5.61 4.31 4.52 3.48 4.92 1.79 5.73.85 6.18 5.06 4.17.15 6.51 5.3 4.05 2.25 5.52 2.1 5.59-.32 9.02-8.25 1.08-6.01-.12-6.02-.06-6.07.25-5.58-2.86-6.11.57-5.91-.72-5.6-2.77-6.11.53-5.45-3.7-6.38 2.24-5.62-2.63-6.02-.06-5.86-1.15-5.6-2.85-6.47.1-6.41.98-4.75 4.56-5.37 3.04-4.74 4.38-1.94 6.13-.11 6.29.03 6.07 2.29 5.56 1.35 6.23 4.98 3.84 5.84 1.97 4.71 4.15 5.07 3.44 6.03 1.56 5.44 2.72 5.04 3.5 5.2 3.19 5.85 1.91 5.04 3.52 6.03 1.55 4.72 4.14 6.34.95 4.69 4.2 6.2 1.24 3.97 5.62 6.74.14 4.99 3.62 5.35 2.9 4.92 3.73 5.21 3.18 6.19 1.26 5.14 3.32 5.03 3.53 6.84-.03 4.01 5.58 6.07 1.48 4.97 3.35 6.14.76 5.42 2.3 4.81 4.15 5.86 1.23 6.25-.39 5.27 3.37 5.93.59 6.04-.26 5.58 2.92 6.04-.89 5.87.99 5.92.42 5.95.28 5.79-2.71 6 1.15 6 .31 5.62-2.5 6.08.37 5.91-.85 5.17-3.64 5.62-1.74 5.77-1.3 5.23-2.82 5.94-1.05 6-1.19 3.49-3.99 5.8-1.67 5.94-1.44 3.94-5.27 6.32-.87 5.06-3.15 5.31-2.78 4.62-3.85 5.27-2.89 2.87-6.07 6.31-1.62 4.52-3.92 3.36-5.11 3.79-4.55 4.29-4.11 2.94-5.19 2.7-5.25 5.38-3.64.49-6.42 4.09-4.62 3.58-5.07-.35-6.35 3.23-5.37-.42-6.14-.24-5.97 1.27-5.85-1.51-5.9-.43-5.85 2.4-6.16-2.09-5.74.03-6.05-3.82-5.25-.33-6-.5-6.02-1.3-5.84-2.16-5.56-1.48-5.82-2.95-5.24-3.28-5.07-2.96-5.17-.15-6.5-3.78-4.85-1.99-5.7-2.79-5.32-2.12-5.63-4-4.73-3.33-5.06-1.45-5.96-2.69-5.37-2.53-5.44-1.17-6.09-3.37-5.05-5.1-4.2-1.78-5.8-1.9-5.75-.99-6.18-5.57-3.99-2.11-5.64-1.63-5.88-1.65-5.87-3.9-4.79-3.55-4.95-2.34-5.54-.72-6.31-3.25-5.1-.98-6.19-3.24-5.11-4-4.74-3.65-4.91-.05-6.64-2.78-5.33-2.56-5.43-4.41-4.54-1.57-5.91-2.72-5.36-2.77-5.33-3-5.23-2.31-5.55-1.27-6.06-4.52-4.5-2-5.71-1.98-5.97-5.78-2.75-5.03-2.81-5.03-3.49-6.06 1.13-5.69.39-6.22.24z"/><path fill="#f2ba8f" d="M500.59 191.35l4.75 3.87 4.19 4.29 1.99 5.63 1.48 5.46 4.15 5.56-3.73 5.65-1.28 5.66-1.76 5.76-2.53 5.39-3.06 5.14-2.89 5.21-1.32 5.97-2.07 5.61-3.11 5.11-2.62 5.35-2.23 5.54-3.79 4.78-3.81 4.78-1.97 5.66-3.42 4.96-2.5 5.41-.14 6.55-2.61 5.36-5.28 5.93.91 6.33 3.88 4.16 5.36-.45 4.47-2.99 4.93-6.09-.24-6.72 5.47-3.98 2.11-5.59.3-6.47 5.59-3.92 2.12-5.58.4-6.41 2.17-5.56 4.52-4.44 1.34-5.96 3.88-4.75.83-6.21 2.79-5.26 3.09-5.13 3.09-5.13 2.62-5.36 1.17-6.01 4.19-4.56.81-6.18 4.97-4.2.5-6.33 2.59-5.33 2.8-5.23 2.95-5.17 2.5-5.39 2.24-5.93 4.78-4.14 6.19-1.49 5.55-1.59 5.68-1.83 6.16-.22 4.89 4.01 5.73 1.92 5.28 3.44 3.38 5.34.18 6.41 2.49 5.84-2.13 5.93-.24 6.46-3.08 5.11-5.22 4.08-.08 6.55-4.02 4.66-1.04 6.09-4.97 4.2-1.86 5.7-3.21 5.05-1.35 5.95-1.31 5.96-4.72 4.32-.98 6.13-2.26 5.5-2.88 5.21-3.36 4.98-2.19 5.54-3.04 5.13-1.02 6.1-3.83 4.75-2.91 5.2-1.33 5.96-2.74 5.28-3.2 5.06-2.08 5.6-4.83 4.28-1.97 7.52 1.2 5.38 1.91 6 6.22-1.27 3.05-4.14 4.66-6.22 2.68-5.31 3.92-4.71 1.92-5.67 2.81-5.24 1.46-5.9 1.34-5.95 3.66-4.84 4.08-4.63 2.75-5.28.59-6.31 4.92-4.23-.17-6.68 2.97-5.18 2.96-5.17 3.33-5 1.92-5.67 1.86-5.7 2.18-5.55 4.08-4.64 3.41-4.96 2.12-5.59 1.66-5.8 3.18-5.07.81-6.22 3.83-4.77 1.42-5.65 4.57-4.15 3.02-4.89 1.44-5.66 2.71-5.33 4.9-3.45 4.94-2.99 5.12-3.33 6.05-1.63 6.1 1.42 5.84 1.94 5.03 3.5 4.76 3.96 2.22 5.79 1.54 5.72-.08 5.82.72 5.96-2.96 5.19-1.02 5.84-3.94 4.45-2.65 5.07-1.54 5.61-1.49 5.88-2.61 5.33-1.9 5.68-3.34 4.99-2.82 5.24-2.26 5.5-3.36 4.98-2.34 5.47-4.14 4.61-.11 6.54-3.65 4.84-3.36 4.99-1.11 6.06-4.94 4.22-.9 6.16-3.38 4.97-2.69 5.3-2.75 5.27-2.57 5.37-1.03 6.1-4.56 4.41-1.43 5.91-2.19 5.54-3.36 5-.82 6.21-3.93 6.57-1.04 5.66 3.82 4.84 5.97-.59 3.48-4.01 3.65-6.7 4.9-4.24.59-6.31 2.18-5.55 2.47-5.4 4.62-4.38-.01-6.59 5.46-3.97-.37-6.77 5.7-3.86 1.06-6.09 1.7-5.77 1.63-5.82 3.24-5.04 4.75-4.31 1.09-6.07 3.27-5.02 1.56-5.84 1.91-5.69 3.36-4.97 4.34-4.52 1.35-5.95 2.86-5.22 1.27-5.99 2.92-5.2 1.52-5.88 5.94-3.4 3.26-4.94 4.5-4.27 5.8-2.33 6.24.42 6.24-.44 5.5 2.96 4.58 3.91 3.47 4.69 3.43 4.6 1.61 5.52 3.02 5.66-3.65 5.53.26 6.25-3.06 5.11-1.91 5.67-2.23 5.51-2.58 5.35-1.86 5.69-3.8 4.76-1.72 5.75-3.86 4.72-3.36 4.97-2.32 5.47-.29 6.44-3.23 5.03-3.61 4.85-3.8 4.76-.27 6.45-3.37 4.96-4.12 4.61-.82 6.19-2.92 5.18-4.4 4.47.12 6.64-4.88 4.24-.83 6.19-1.54 5.85-3.04 5.12-5.02 4.17-2.24 5.52-1.17 6.02-4.17 4.59-.93 6.14-3.79 4.77-.59 6.3-4.27 4.54-.77 6.21-3.26 5.02-4.04 4.65-2.58 5.35-1.52 5.86-2.54 5.37-3.4 4.95-.95 6.14-3.51 4.92-3.49 4.91.55 9.09 8.6 3.6 5.71-2.06 5.75-1.79 5.84-1.17 6.2 1.07 5.6-2.72 5.75-1.74 6.27 1.57 5.67-2.35 6.11.51 5.99-.19 5.59-2.81 5.89-.95 6.21 1.13 5.83-1.32 5.93-1.3 5.9 1.28 5.26 2.79 4.01 4.27 3.7 4.47 5.65 4.28-2.01 6.77.63 5.95.18 6.49-4.58 4.59-4.96 3.38-4.93 3.07-4.43 4.68-4.84 3.91-5.81 1.99-5.15 3.28-5.78 2.05-5.27 3.07-5.07 3.43-6.27 1.08-5.88 1.87-4.65 4.28-5.09 3.4-5.52 2.56-5.65 2.33-5.95 1.71-5.79 2.02-5.22 3.16-5.3 2.99-4.9 3.79-5.91 1.81-5.9 1.82-4.01 5.54-6.24 1.14-5.93 1.77-4.09 5.41-5.43 2.75-6.18.87-5.53 2.07-5.06 3.29-5.47 2.34-5.54 2.23-6.16-.01-5.86.85-5.29 3.66-6.36-2.06-5.55 3.01-5.89.79-5.93.55-5.95.67-5.89-3.55-6.02 2.82-5.98-.05-5.76-2.03-5.55-2.75-5.98.05-5.65-1.71-6.39 1.06-5.19-3.39-6.02-.69-5.65-1.9-4.37-4.89-5.99-1.06-4.85-1.17-5.56-2.19-3.78-5.65-6.25-.86-5.3-2.71-5.35-2.64-5.4-2.62-4.3-4.32-3.86-4.82-6.25-1.54-3.08-5.63-5.92-2.24-3.54-4.9-5.55-2.95-1.63-6.46-4.92-3.65-3.12-5.07-3.55-4.81-1.37-5.97-4.36-4.55-1.3-5.89-3.1-5.33.2-6.19-1.5-5.78-.13-5.97-.5-5.92 1.19-5.91-1.46-5.99 1.71-5.81-.63-6.07 1.98-5.7 2.39-5.53-.14-6.14 1.26-5.82 2.1-5.57 1.8-5.67 3.9-4.87 2-5.56 1.95-5.6 2.17-5.52.19-6.48 5.01-4.26 1.62-5.87 1.71-5.84 2.64-5.38 4.34-4.57 2.68-5.37 1.13-6.11 3.92-4.77 1.16-6.1 4.92-4.29 2.2-5.61.98-6.18 3.94-4.76 2.02-5.69 3.7-4.88.56-6.39 2.88-5.27 1.28-6.05 2.63-5.39 3.14-5.15 3.22-5.12 2.55-5.43 3.82-4.83 1.8-5.79 4.37-4.56 1.17-6.1.77-6.3 5.01-4.25 1.47-5.95 2.88-5.28 3.84-4.82 3.1-5.16 2.52-5.46 1.61-5.89 2.61-5.41.82-6.27 3.18-5.13 4.61-4.45.59-6.39 4.68-4.43 2.69-4.98 2.64-5.76 5.02-3.74 6.54.5 5.66-3.63 6.08 1.79 5.88 1.81z"/><path fill="#b74701" d="M388.95 589.45c-2.08-.42-4.16-.87-6.23-1.31-1.86-1.03-3.83-1.95-5.6-3.1l-4.26-4.3-.11-.15c-1.23-1.63-2.41-3.29-3.62-4.93l.74.62-6.08-2.22-.3-.11c-1.66-1.61-3.36-3.19-5-4.82l-.22-.53-2.38-5.84.89 1.19-5.21-3.55-.35-.24-.37-.54-3.4-5-.44-.64-.03-1-.2-6.75.99 2.37c-.82-.83-4.98-4.57-5.68-5.26l-.01-1.61-.06-6.37.73 2.27c-.63-.88-4.13-5.24-4.66-5.96.02-.8.25-6.7.28-7.66l.1 1.13-1.45-5.7.45 1.13-3.35-5.56-.43-.71-.12-.95c-.04-.34-.8-6.43-.81-6.57l.12-.68 1.08-6.03-.07 1.01-.34-6-.03-.6.16-.66 1.38-5.78 1.23-5.81-.08.49.58-5.93.05-.52.18-.51 1.98-5.66-.23 1.04.6-5.98c.01-.06.02-.25.04-.32.09-.59 1.12-6.44 1.19-6.87.23-.33 3.65-5.4 3.99-5.9l-.37.69 2.37-5.34 2.16-5.43-.25 2.09c-.17-1.49-.9-7.68-1.06-9.12 1.21-1.02 5.67-4.56 6.95-5.62l-1.45 2.96.39-6.4.08-1.24.64-.86 3.6-4.88-.33.57 2.63-5.21.29-.57.3-.32 4.19-4.4-.85 1.78 1.15-5.99.14-.75.3-.45 3.23-4.9-.25.52 2.3-5.39.17-.4.12-.16 3.48-4.76-.29.6 2.13-5.49-.11.5c.29-2.05.64-4.09.96-6.13l.16-1.01.7-.42 5.77-3.5-.7 1.19c.37-2.18.59-4.42 1.08-6.57l2.84-5.1c.87-1.77 1.76-3.53 2.67-5.29 1.21-1.56 2.42-3.12 3.65-4.67-.85 1.53-2.1 3.86-2.82 5.1-.96 3.15-2.77 7.92-4.05 11.04l.12-.42c-.06 2.3-.17 4.6-.27 6.89l-.67.52-5.36 4.1.86-1.44c-.12 2.12-.2 4.24-.34 6.36l-.1.34-1.65 5.65-.06.22-.23.38-3.06 5.04.29-.57-1.83 5.57-.06.17-.2.35-2.89 5.1.44-1.19-.74 6.05-.11.92c-.22.3-4.29 5.02-4.67 5.49l.59-.88-2.34 5.35-.1.22-.23.35-3.38 5.03.71-2.1c-.03 1.44-.12 6.87-.15 8.14-.84.77-5.54 4.75-6.5 5.61l1.46-3.75c.12.76 1.07 7.27 1.15 7.77-.2.51-2.23 6.04-2.5 6.72l-2.34 5.55-.14.33-.24.36-3.39 5.19.68-1.72-.99 5.92.04-.32-.56 5.98-.05.53-.18.52-1.97 5.66.23-1.03-.61 5.93c-.58 3.22-2.04 9.15-2.87 12.31l.12-1.26.22 6.01.02.55-.09.46-1.2 6 .05-1.26.56 6.01-.54-1.66 3.18 5.66.34.6.11.53 1.21 5.75.14.64-.04.49-.49 6.16-.75-2.51c.43.57 3.99 5.7 4.38 6.23-.07 1.35-.28 6.21-.35 7.53l-1.05-2.57c.59.58 4.86 5.13 5.41 5.68-.06 1.62-.24 6.49-.29 8.03l-.47-1.64 2.98 5.26-.72-.78 4.9 3.97.69.56.2.64 1.89 6.02-.49-.8c1.32 1.52 2.6 3.07 3.9 4.6l-.68-.47 5.81 2.85.53.26c.98 1.82 2.58 4.31 3.13 5.52l3.66 4.82-.2-.17c1.45 1.19 3.76 2.6 4.73 3.52 1.98.75 3.95 1.49 5.92 2.27z"/><path fill="#b74701" d="M312.72 482.7l2.88 4.44 5.29 2.73 2.29 4.78 1.95 5.05 5.21 2.35 1.93 5.19 3.12 3.98 5.38 1.7 3.68 3.36 5.16 4.91 5.04 5.09 6.12 2.91 3.24 6.78 5.56 2.53 5.26 2.89 4.41 2.58 4.16 3.03.57 5.96 6.12-1.03 5.55 2 .97-1.34 2.41 1.8.54.88 2.39-2.58.29-.65 4.79-3.11 7.28-3.46 4.78-1.9 5.17-1.39 5.08-3.2 4.12-4.55 4.76-4.7 5.89-3.24 6.2-3.75 4.74-5.47 3.66-3.41 3.48-3.61 4.11-3.02 2.75-4.47 1.88-5.12 6.02-1.8 1.1-5.72 4.59-3.2.21-6.05 3.87-3.8 1.55-5.09 2.41-4.63 2.21-4.79 2.1-4.85 2.83-4.72-.41-5.65.88-5.29-.36-5.4.34-5.83-.02-5.79 1.77-6.21-3.44-5.41-2.28-5.53-3.44-4.88-2.88-5.09-3.24-5.04-4.88-3.43-5.26-2.8-4.48-4.23-6.09-.82-5.14-1.17-4.85-4.18-5.6 3.11-2.67-2.37-6.02 2.45-6.3.38-6.59.59-4.6 4.56-4.13 4.56-5.47 2.8-5.35 3.09-2.41 7.15-5.61 3-4.24-4.19-4.95-4.96-4.29-3.98-4.91-3.5-5.28-2.79-4.97-3.33-5.23-3.99-6.63.8-6.07-1.05-2.58-.22-5.41-.21-5.76-1.08-4.36 4.71-5.42 2.23-7.05-.32-4.55 4.33-2.86 5.76-5.11 3.36-4.61 4.19-.93 6.47-3.08 5.3.02 6.22-3.63 5.49 2.44 6.03.46 5.85-2.64 5.77 3.66 4.86-1.41 5.92 1.91 5.06 4.48 4.04-.52 5.96 3.33 4.29 1.6 5.13 2.02 4.99z"/><path fill="#e87722" d="M301.05 479.85l.02 6.17 5.71 2.42 2.83 4.33 3.31 3.87 1.63 5.34 4.73 2.66 1.57 5.41 5.45 1.62 3.68 3.34 5.06 5.01 5.04 5.08 5.04 4.32 5.27 4.03 4.46 4.06 5.74 2.15 4 3.22 3.59 4.01 8.65 1.06 4.83 3.03-.35 2.07 3-1.3.54-.45 2.86 1.54-.01-1.33 5.35-2.1 6.42-5.19 5.35-.94 4.35-2.7 5.46-2.61 3.41-5.52 5.79-3.31 6.51-2.5 3.36-7.1 6.95-2.94 3.67-3.42 3.27-3.83 3.21-3.86 3.51-3.76 3.21-4.03 2.21-4.79 2.81-4.36 3.36-3.98 2.99-4.25 4.15-3.68.13-5.86 5.12-3.42 1.29-5.27-.03-5.63 3.16-4.58 2.29-5.07-1.53-5.78 1.51-5.23 2.14-5.92-3.46-5.87 1.08-6.08-2.63-5.6-1.56-5.9-2.75-5.46-2.02-6.07-6.56-2.23-3.35-5.16-6.02-1.8-4.21-4.8-6.3-.4-4.44-4.46-5.92 2.54-5.25-.92-2.54.78-6.3-.9-5.8 2.4-6.64.13-4.32 4.86-6.81.83-2.52 6.42-5.92 2.46-4.43 5.39-3.87 6.57-5.97-4.75-2.26-7.28-5.56-2.84-3.86-4.8-5.28-3.05-5.29-3.03-6.47-.34-5.8-1.97-6.05-1.64-2.61.69-5.35.14-5.7-1.15-4.56 3.94-6.36.26-5.02 3.52-5.43 2.86-4.6 3.97-4.34 4.32-4.06 4.68-2.67 5.7-1.13 6.21-.54 6.13-1.47 5.73.69 5.92-1.53 6.04 2.43 5.15.33 5.39-.01 5.57 2.01 4.97 1.16 5.26 2.7 4.67 3.42 4.19.28 5.81 5.37 2.97z"/></svg>