<?xml version="1.0" encoding="UTF-8"?>
<svg xmlns="http://www.w3.org/2000/svg" data-name="Layer 1" viewBox="0 0 800 800" width="800" height="800"><path fill="#b74701" d="M559.62 223.36l-3.49-2.59-2.88-3.38-3.43-2.7-3.04-3.25-4.81-.71-3.6-2.41-2.27-4.59-3.82-2.17-4.41-1.11-4.75-.36-2.7-4.25-3.97-1.85-4.03-1.7-4.54-.51-3.22-3.66-4.04-1.74-4.69.11-4.43-.45-4.38-.52-3.27-4.38-4.63.41-4.54.3-4.08-1.64-4.3-.64-4.12-1.72-4.17-1.66-4.69 2.36-4.16-1.86-4.36-.01-4.2-2.62-4.41.32-4.41 2.04-4.34-.21-4.42-1.88-4.34 1.47-4.35.69-4.37.21-4.46-.49-4.38.42-4.48-.14-4.38.62-4.19 1.55-4.5.07-3.68 3.5-4.3.85-4.85-.98-3.2 4.51-5.01-1.17-3.42 3.47-5.04-.89-3.75 2.48-3.28 3.45-5.21-.82-2.46 4.98-4.16 1.42-3.66 2.42-3.55 2.54-4.17 1.52-4.83.54-3.52 2.67-2.93 3.49-3.81 2.21-4.18 1.75-2.13 4.39-4.76 1.12-2.41 3.94-3.59 2.56-3.43 2.76-4.09 2.12-1.93 4.29-1.5 4.58-3.2 2.98-4.29 2.07-2.26 3.82-3.72 2.66-.83 4.88-2.5 3.57-4.89 1.94-.28 5.08-1.45 4.23-2.25 3.71-3.91 2.79-2.47 3.66-.55 4.63-4.47 2.7-2.05 3.92.19 4.89-2.27 3.8-.71 4.43-1.49 4.11-2.78 3.69-2.19 3.93.43 4.71.83 4.74-2.12 3.96-.91 4.27-1.62 4.13-2.52 4.03-.66 4.37 1.99 4.69-2.05 4.18.42 4.45 1.52 4.47-1.52 4.29-2.4 4.34 2.17 4.41-2.22 4.45 3.51 4.25.11 4.36-1.66 4.54-.3 4.47 1.29 4.29 2.55 4.05-.66 4.56 2.92 3.89-.58 4.59.45 4.4-.41 4.67 2.39 3.91.56 4.45 1.34 4.21 2.03 3.96 3.45 3.38 1.42 4.14.19 4.7 3.94 3.01 1.92 3.91.52 4.65 2.32 3.73 1.21 4.38 2.04 3.91 2.61 3.57 4.42 2.35 1.84 4.03 2.97 3.24 2.03 3.95 2.6 3.52 2.01 4.03 3.48 2.81 2.31 3.86 3.78 2.62 3.08 3.23 3.23 3.13 2.41 3.76 1.07 4.73 2.81 3.43 3.49 2.99 2.67 3.57 3.12 3.3-.5 5.52 3.79 2.9 1.84 4.06 2.54 3.67 3.39 3.24-.77 5.38 2.5 3.7.89 4.46 4.74 2.72-.67 5.13 2.65 3.69 2.46 3.8.99 4.37.75 4.44 2.89 3.7-1.07 5.01 2.3 3.91.35 4.5 2.77 3.79 2.06-1.09.89 5.02 2.73 3.27 3.53 2.35 2 4.26 4.56.56 2.8 3.69-.74-.19-4.38-.45-2.02 3.88-1.2 3.21-4.65 1.99 1.52 4.05 1.62 2-3.31 1.39 1.9 1.14 1.23.44 1.2.81-.29 1.1-1.34 2.58 2.85-1.14-1.3 3.12 1.6-.39 2.13-.4.77.01.65 3.57 3.7 2.04-1.2 3.61-1.08-1.82-3.97 1.36-2.01 3.88-2.24 2.62-2.84 2.79.93 3.83 1.1 4.31-.07 5.58 5.58.96 3.36 4.35-.61-.53.24 1.61h2.9l-3.02 3.84.21 1.38-2.65-.95-1.12-.39-1.25 2.47.99 1-2.97 3.9-1.48 5.02-1.8 2.53.77.67-.03 1.7 1.61.35 1.64.66-1.17 1.66-.03 1.74 1.98-.4.26 1.61 1.04.16 1.51.4 1.28-.76 1.24 1.93.36-.83.3 4.86 2.82 2.6-1.42.37-.29-.28 2.61 3.98-1.02 5.06 1.58 4.51 4.73 2.12-1.09 1.16 2.64.76-.49.99 2.54.42 1.01-.63 1.32 1.55-.7 2.4 1.84.71 1.76-1.62.57 2.91 1.82-1.74 1.4.3.72 2.57 1.39-.29 1.61.84 1.13-1.04 2.7-1.59 5.26.66 2.01 3.38 1.06-.22.63 2.07 2.06.35.35 2.34.9 1.58 2.83-.51.17 2.84 1.88.48 2.69-1.03.87 2.02 2.29-.24.83 2.61 2.76-.96 1.31-.2 3.7-1.18 4.56.73 4.56.31 4.56.07 4.55 1.7 4.57-2.21 4.56-.25 4.57 1.4 3.72-.4 1.22-.36 2.19-.97 1.35-.63 2.42.61 1.42-.91 1.93-.46 1.66-.76 2.12-.2-.4-3.45 2.62.39 2.05-.84-1.03-2.96 3.37-.04-.15-.62 1.85-2.61 5.26 1.94 2.68-2.1.8-1.3 1.52-.53 1.69 1.98 1.23-.73 2.02 1.19.96-.69.43-3.32 1.98 2.11.34-3.28 1.71 1.53.48-2.93.43-.17 1.68-1.33.18-.2 1.86-1.42.31.14 3.01-3.3 1.4-4.25.7-4.29 2.81-3.93-1.56-.1-.56-2.61 4.1-3.07-.56-2.2 2.91 1.37.44-.6.85-2.7 4.04-3.54 2.72-5.54-3.38-2.08 1.91-1.12-1.47-1.18.73-1.2-2.07-.53.8-1.46-.88-1.05-1.18-.19.27-2.15-1.11-.12-.7-1.66-.68-.44-2.04-1.41-2.15-1.68h-1.02l1.78-4.97 4.63-2.02 1.88-2.84 2.75-2.72 1.24-3.73-3.42-3.56-1.58-3.21-.05-5.53-5.4.96-.44-4.92-1.24-.01 2.08-3.89-.05-.99 1.36-1.2 1.73 1.46 2.23-1.28 3.36-2.97 1.29-4.32-2.72-3.08.85-4.61-2.76-3.69-2.61-4.11-5.07.44-1.94-2.82 5.31 1.1 3.87-2.34 2.49-3.93 2.54-3.42 1.59-3.91 2.21-4.15.85-.33 3.08-2.79-1.3-5.01 3.33-3.63.16-4.62 1.79-4.09 1.17-4.31 2.33-3.87.81-4.46 1.2-4.33 4.52-2.88 1.85-4.01.8-4.51 1.71-4.1.82-4.58 3.21-3.34 3.18-3.3-.3-5.29 2.35-3.8 2.61-3.63 3.47-3.06 2.83-3.46 3.11-3.23 1.87-4.1 3.23-3.12.8-4.97 4.09-2.44 2.04-4.06 3.18-3.14 3.96-2.43 1.27-4.6 3.91-2.37 1.35-4.42 3.64-2.65 2.15-3.76 2.44-3.56 4.22-2.4-.82-5.62 2.55-3.46 2.11-3.73 2.75-3.39 4.21-2.7 1.23-4.24.9-4.35.17-4.62 4.01-3 2.3-3.77 1.6-4.05-1.75-5.16 4.48-3.11-.55-4.68-.63-4.62 3.26-3.63.96-4.21 1.74-4.07-2.44-4.82 1.8-4.06 2.16-4.06 1.27-4.22-1.18-4.47-.06-4.33.06-4.31.48-4.29-.72-4.32-1.14-4.29.39-4.32.16-4.32 1.08-4.42-.73-4.29-1.21-4.22-1.6-4.13 2.12-4.72-3.19-3.83-.26-4.35 1.53-4.8-2.77-3.8.68-4.7-2.64-3.77-3.7-3.35.47-4.72-3.02-3.5-.24-4.54-2.82-3.5-2.19-3.73 1.56-5.51-2.38-3.7-2.02-3.86-4.24-2.63-.8-4.52-1.05-4.47-4.15-2.51-2.59-3.48-3.36-2.91-.43-5.04-3.78-2.57-.9-4.84-4.91-1.57-3.03-3.08-3.08-3.02-3.11-2.97-2.18-3.91-1.92-4.24-3.35-2.8-3.19-2.97-4.14-1.84z"/><path fill="#e77722" d="M539.21 223.78l-3.88-2.16-2.53-3.85-5.01-.59-3.91-1.97-2.21-4.45-3.4-2.8-4.3-1.37-4.71-.56-2.86-3.74-3.92-1.9-3.43-2.85-4.72-.25-3.45-2.88-3.33-3.33-4.93.53-3.99-1.73-4.07-1.55-4.39-.53-4.23-.98-3.58-3.26-4.83 1.26-4.13-1.25-4.13-1.37-4.3-.58-3.74-3.89-4.74 2.12-4.18-1.55-4.3-.75-4.26-1.44-4.38-.17-4.42 1.05-4.34-.87-4.36 1.42-4.33 1.33-4.37-.51-4.4-.32-4.43-.5-4.16 2.23-4.46-.55-4.24 1.19-4.18 1.41-4.98-2.68-3.63 3.97-4.94-1.76-3.84 2.67-4.18 1.33-4.27 1.03-3.48 3.37-4.7-.19-4.45.65-3.38 3.32-4.61.35-3.05 3.83-3.85 2.02-4.9.01-3.88 2.07-4.36 1.23-2.75 3.97-4.67.83-2.76 3.79-2.8 3.62-4.05 1.83-4.24 1.64-4.24 1.73-1.35 5.26-4.49 1.47-4.13 1.99-1.44 4.88-4.71 1.45-3.54 2.71-.78 5.3-3.26 2.93-3.14 3.05-2.73 3.42-3.56 2.77-.89 4.81-3.08 3.15-3.36 2.98-3.61 2.89-.35 4.97-2.94 3.33-.99 4.47-2.23 3.73-2.42 3.66-4.37 2.75-1.7 4.08-1.94 3.98.29 4.88-1.7 4.03-.74 4.39-3.71 3.37 1.56 5.09-4.11 3.36-.58 4.41-.43 4.42-1.94 4.08.13 4.51-1.02 4.28-1.14 4.27-1.04 4.31-.69 4.37.95 4.5 1.03 4.46-1.76 4.3-.37 4.4 1.9 4.39-1.78 4.42 1.89 4.32-1.44 4.49 2.47 4.19-2.01 4.62 2.04 4.18 2.08 4.11-.19 4.46-.22 4.5 1.99 4.06-1.16 4.8 2.75 3.83.35 4.47 2.24 3.91 1.59 4.09.26 4.57 3.79 3.23.95 4.33 1.44 4.14 2.45 3.69 1.13 4.3 1.66 4.08 3.17 3.26.2 4.94 2.19 3.83 3.25 3.16 1.66 4.17 4.31 2.36.02 5.4 4.41 2.19 3.73 2.62 1.34 4.56 2.71 3.47 4.34 2.12 2.94 3.36 1.69 4.36 1.61 4.36 4.18 2.39 1.93 4.09 3.14 3.21 1.75 4.18 3.02 3.31 3.43 3.09 2.3 3.83 2.76 3.55-1 5.68 2.1 3.88 2.68 3.57 3.4 3.24 1.33 4.29.92 4.46 2.83 3.57 3.71 3.24-.38 4.98 3.33 3.45-.73 5.03 3.1 3.59 1 4.36 2.33 3.92-.56 4.81 1.59 4.15 1.78 3.16 4.1-.15 4.4 1.51 4.4 1.43 4.41-2.43 4.41 1.97 4.4-2.73 4.41.71 4.4.57 4.41 2.06 4.41-.38 4.4.21 4.41-1.46 4.41-.78 4.4.26 4.41-.64 4.41 2.64 4.41-2.64 4.41 2.77 4.4-3.46 4.41 2.38 4.41.29 4.41-.99 4.4-.85 4.41-.04 4.41-.13 4.41 2 4.41-2.09 4.41-.72 4.41 1.64 4.41 1.63 4.41-2 4.42.01 4.42.58 4.51 1.78 4.52-.56 4.51-.53 4.52-.77 4.51 1.49 4.52-.75 4.52.49 4.52-2.99 4.68 2.26 1.53-4.69 1.3-4.23.35-4.54 1.97-4.02 2.14-3.95-1.21-5.16 2.25-3.92 1.35-4.26 1.76-4.1 3.45-3.35 3.21-3.4.96-4.43.02-4.94 3.25-3.33 1.13-4.43 2.6-3.64 4.08-2.77 2.26-3.79-.64-5.61 3.87-2.81 2.89-3.4 2.89-3.38.92-4.8 4.21-2.41 3.15-3.16.46-5.27 2.37-3.82 3.38-3 3.29-3.04 2.04-3.9 3.54-2.64 4.39-2.04.73-4.86 3.98-2.44.81-4.69 3.52-2.83 2.42-3.59 1.21-4.3 1.77-3.93 2.57-3.49 3.39-3.11-.24-4.91 2.52-3.57 2.32-3.68 1.32-4.12 2.38-3.71.46-4.42 1.54-4.02.16-4.46 2.98-3.6.9-4.23 2.78-3.78-.94-4.65 1.84-4.04-1.39-4.63.51-4.26.38-4.26 2.79-4.01-.69-4.4.2-4.3.63-4.28-.16-4.32 2.08-4.3-3.32-4.3 3.16-4.44-.05-4.38-3.66-4.08.78-4.4-1.86-4.13 1.41-4.56-.75-4.27-2.27-3.98 1.38-4.7-2.14-3.97-2.37-3.86-.82-4.24 1.41-4.93-1.98-3.95-1.43-4.11-3.77-3.22-1.48-4.04.62-4.95-1.71-4-2.12-3.82-3.8-2.95-1.05-4.31-.07-4.92-2.49-3.62-1.91-3.95-4.58-2.24-.41-4.95-3.52-2.86-3.05-3.15-2.06-3.88-2.46-3.6-4.46-1.92-3.26-2.87-1.33-4.61-3.07-3.06-2.13-4.01-4.66-1.43-3.53-2.54-3.05-3.05-1.91-4.42z"/><path fill="#d77c3a" d="M490.03 700.32c2.53-2.54 4.09-6.02 4.09-9.88 0-5.82-3.56-10.81-8.62-12.9a3.635 3.635 0 0 1-2.26-3.37c0-1.47.88-2.8 2.23-3.36 1.72-.71 3.26-1.75 4.56-3.04 2.53-2.53 4.09-6.03 4.09-9.88 0-6.65-4.65-12.22-10.88-13.61-.99-.23-2.01-.35-3.08-.35H335.5c-1.06 0-2.09.12-3.07.35-2.62.58-4.97 1.91-6.81 3.74a13.914 13.914 0 0 0-4.09 9.87c0 5.82 3.57 10.82 8.63 12.91 1.37.56 2.26 1.89 2.26 3.37 0 1.47-.88 2.8-2.24 3.36-1.72.71-3.27 1.75-4.57 3.04a13.897 13.897 0 0 0-4.09 9.87c0 5.82 3.57 10.82 8.63 12.91 1.37.56 2.26 1.89 2.26 3.37 0 1.47-.88 2.8-2.24 3.36-1.72.71-3.27 1.75-4.57 3.04a13.914 13.914 0 0 0-4.09 9.87c0 5.82 3.57 10.82 8.63 12.91 1.37.56 2.26 1.89 2.26 3.37v2.65h.08c1.39 14.12 13.26 25.17 27.75 25.17h5.26c1.21 0 2.35.6 3.02 1.62 4.99 7.58 13.56 12.6 23.32 12.6h31.92c9.76 0 18.33-5.01 23.32-12.6a3.633 3.633 0 0 1 3.02-1.62h5.26c14.49 0 26.37-11.05 27.76-25.17h.08v-2.65c0-1.47.88-2.8 2.23-3.36 1.72-.71 3.26-1.75 4.56-3.04 2.53-2.53 4.09-6.03 4.09-9.88 0-5.82-3.56-10.81-8.62-12.9a3.635 3.635 0 0 1-2.26-3.37c0-1.47.88-2.8 2.23-3.36 1.72-.71 3.26-1.75 4.56-3.04z"/><path fill="#391900" d="M367.49 767.31l3.22 1.83.48 5.33 4.03 2.21 3.72 2.45 3.85 2.57 4.54.7 4.54.85 4.56-3.4 4.56 2.12 4.55-1.23 4.56-1.14 4.56 1.42 4.57 1.71 4.56-1.06 4.13-1.9 4.74 1.27 2.93-4.16 4.54-.64 4.34-1.76 2.13-4.11 1.97-4.19-4.36-.56-4.27-.58-4.28.14-4.28 1.1-4.28 1.4-4.27-1.58-4.28-.92-4.28-.58-4.28 2.73-4.28-.8-4.28-1.77-4.28.54-4.28 1.25-4.28-1.98-4.28 3.26-4.28-.84-4.28.92-4.21-.74-4.05.14zM492.48 657.89l1.49 3.71-1.83 3.21-1.28 3.79-3.27 2.77-4.49-.46-2.94-.25-4.38 2.95-4.37-2.55-4.38-1-4.39 3.61-4.38-1.86-4.38.78-4.38-.46-4.38.47-4.38-.8-4.39 1.32-4.38-1.44-4.38 1.11-4.38.67-4.39-1.43-4.38 1.27-4.38-.53-4.39-1.43-4.38 1.11-4.39.88-4.38-2.9-4.38 2.3-4.38-2.26-4.39-.34-4.38 1.97-4.38-1.09-4.39.4-4.39 1.12-4.38-1.17-4.39 1.02-4.38.44-4.39.56-4.39-3.21-4.39 1.93-3.07-.65-5.21-.33-3.42-3.87-.06-5.23-2.73-4.13 1.83-3.38-1.04-4.52 3.82-1.96 3.84-1.07 2.66-3.99 3.38.26 4.37 1.15 4.38-.25 4.38 1.33 4.39-1.14 4.38-1.89 4.38.34 4.38 1.15 4.38 1.37 4.38-.79 4.38-2.47 4.39.77 4.38 1.24 4.38-.15 4.39.69 4.38-.79 4.38 2.06 4.39-3.39 4.38 1.23 4.38 2.11 4.39-.33 4.38.43 4.38-3.27 4.39-.69 4.38 1.34 4.38-1.08 4.39 2.77 4.38-2.8 4.39.77 4.39.62 4.38-1.17 4.39 1.89 4.39-.42 4.39 1.4 3.02-.73 5.33.03 2.6 4.58.67 4.68.7 4.07zM499 690.44l-3.65 4.92-2.42 4.6-2.19 3.98-4.05 1.86-3.53-.33-4.37-.27-4.36-1.19-4.36-.02-4.37 1.97-4.36-1.36-4.37-.81-4.36 2.03-4.37.41-4.36-.01-4.37-2.8-4.36-.33-4.37.68-4.36.4-4.37-.63-4.37-.7-4.36 3.5-4.37-2.85-4.37 1.27-4.36 1-4.37-.89-4.37-1.54-4.37.32-4.36.54-4.37 1.06-4.36-1.55-4.37-.22-4.37 2.43-4.37-3.17-4.37 3.26-4.36-.8-4.37.91-4.38-2.69-4.37.66-4.38-.67-2.76-1.13-4.91.22-3.74-3.07-2.99-4-.64-4.99 3.49-4.64.62-6.04 4-1.59 3.85-1.01 3.08.1 4.37-1.74 4.36 1.8 4.36.15 4.37 1.03 4.36-1.62 4.37.99 4.36-3.17 4.37 2.09 4.36-1.22 4.37 1.03 4.36-.4 4.37-1.24 4.36 1.36 4.37-.47 4.37-.54 4.36 2.72 4.37-.13 4.37-.93 4.36-.31 4.37-.87 4.37-.6 4.36 2.59 4.37-.18 4.37-.17 4.36-2.09 4.37 2.95 4.37-3.48 4.37 2.8 4.37-3.04 4.36 3.65 4.37-.18 4.38.38 4.37-.3 4.38-1.59 3.51-1.32 4.85 2.04 1.87 5.18 3.09 3.41 2.52 4.6zM494.73 722.99l.61 4.06-3.57 2.64-.65 4.26-4.01 1.64-4.24-.61-2.71 3.68-4.38-2.01-4.37.37-4.38-.83-4.39.64-4.38 1.75-4.38-1.64-4.38-1.03-4.38 1.55-4.38-.55-4.39 1.4-4.38-.56-4.38.92-4.38-2.72-4.39.21-4.38-1.15-4.38 3.4-4.39-1.76-4.38 2.22-4.39-2.3-4.38.98-4.38-2.53-4.38 2.57-4.39-1.79-4.38 2.79-4.38-.17-4.39-3.14-4.39.91-4.38 2.3-4.39-.81-4.38-2.61-4.39 1.47-4.39-.26-4.39-1.05-3.15 1.71-4.31-2.04-4.37-2.46.11-5.35-2.45-4.1.32-3.71 2.23-2.99 1.76-3.15 3.36-1.92 3.75-.38 2.75-2.26 4.37-.46 4.38.98 4.38 1.56 4.39-3.14 4.38 1.4 4.38-.01 4.38 1.91 4.38-1.62 4.38-1.36 4.38 2.03 4.39-.49 4.38 1.58 4.38-1.34 4.39-1.67 4.38 2.71 4.38-2.59 4.39-.39 4.38 1.93 4.38.06 4.39-.35 4.38-1.89 4.38 1.93 4.39 1.59 4.38-.84 4.38.31 4.39-.6 4.38.67 4.39.1 4.39-3.36 4.38 3.51 4.39-3.12 4.39.48 4.39.94 3.48-1.45 4.67 2.38 4.09 3.24.4 5.35 1.93 4.43z"/><path fill="#391900" d="M483.76 739.66l.7 6.12-3.81 3.28-1.84 3.61-2.02 3.54-2.2 3.63-2.35 4.01-4.1 1.76-4.98-1.28-3.74 1.52-4.03.22-4.32 1.36-4.32 1.05-4.32.09-4.32-1.63-4.33-1.41-4.32-.28-4.32 3.62-4.33-3.31-4.32-.35-4.32 1.75-4.32-1.58-4.33 3.65-4.32-.73-4.32-.57-4.33-.46-4.32.21-4.33-.82-4.32-1.18-4.33 2.76-4.32-2.31-4.34.57-4.33 1.68-4.16-1.42-3.59-2.48-4.34-.01-2.78-3.3-5.06-.34-1.42-4.45-3.51-2.68-2.46-3.63-.67-4.34.58-3.05 3.89-.37 4.3-1.99 4.31 2.29 4.3-1.85 4.31 1.85 4.31-3.11 4.3 1.02 4.31 2.31 4.31-1.94 4.3-.06 4.31.75 4.31 1.36 4.31-.53 4.3-2.26 4.31.57 4.31-.32 4.31.37 4.31 1.68 4.31.97 4.31-.46 4.31-1.09 4.3-1.76 4.31.89 4.3-1.44 4.31.94 4.31.05 4.31-.19 4.31 1.57 4.32 1.02 4.31-1.61 4.31-.42 4.31-1.26 4.31 3.57 4.16-2.73 5-.64z"/><path fill="#f5d05e" d="M375.75 633.61l-2.46-3.7 1.43-4.63.18-4.48-.09-4.44-.51-4.39-.76-4.36-2.25-4.15-.6-4.37 1.05-4.61-.82-4.34-1.78-4.2-2.56-4.08 1.12-4.64-1.31-4.26-.75-4.35.13-4.5.26-4.53-2.13-4.12-1.04-4.3.84-4.65-1.71-4.18-.22-4.46-1.76-4.16-1.01-4.3-2.35-4.02.27-4.57-1.14-4.27 1.41-4.85-1.22-4.27-.76-4.37-4.24-3.52-.67-4.41 1.81-5.05-1.65-4.17-2.52-3.92-.34-4.53-2.58-3.87-2.54-3.83-.84-3.55-3.11-3.59-4.86 1.47-4.28-1.44-4.36-1.33-4.31-1.74-2.03-4.81-3.59-2.66-1.84-4.04-1.5-4.01-2.68-4.77 2.19-4.82 3.22-3.69 3.33-1.89 2.84-3.07 4.01.69 4.65-1.23 3.4 2.92 3.35 3.66 1.7 4.82 2.19 4.25 5.16 2.75 1.2 4.41.07 4.83 2.23 4.56 5.21.06 4.58 1.05 4.54-2.31 4.75 1.76 4.31-2.2 4.84.33 4.39-1.66 3.14-4.01 4.53-.66 2.84-3.38 4-1.77 4.09-1.85 1.12-4.4-1.5-3.5-2.4-3.28-1.55-3.92-3.68-2.31-3.05-2.81-1.65.54v-5.31l-2.6-3.38-4.14-2.77-1.83-4.14 1.81-4.96-3.45-3.76 1.64-4.17 2.67-3.5 1.01-3.72.59-4.4 4.3-1.4 3.21-3.13 4.48-.84 4.04-2.18 4.61.55 4.44-2.75 4.62.55 4.55.87 4.5 1.09 4.81.85 2.85 4.19 2.8 2.85 2.97 2.96-.51 4.49 3.26 3.43-2.86 4.11 1.18 4.03.21 4.55-4.15 2.96-.88 4.28-1.09 4.41-3.15 3.07-.53.31-3.26 2.65-1.98 3.59-1.61 3.9-1.95 3.67-3.7 2.35 3.9 2.15 3.25 2.63 3.35 2.47 2.43 3.91 3.73 2.09 4.47 1.23 4.54.55 3.91 2.96 4.48 1.2 4.64-.15 4.59.71 4.44-2.85 5.72 2.61 1.92-5.02-.18-4.95.9-4.57 4.39-3.26 2.25-4.36 3.24-3.67 3.37-3.54 4.13-.91 3.61-.95 4.31-2.26 4.08 2.01 3.76 2.64 2.95 4.69v5.47l-1.32 4.96-2.23 3.88-2.82 3.29-.94 5.47-5.47.12-3.58 2.41-3.33 3.66-5.04-1.35-4.2 1.24-5.41.51.53 5.96-.24 4.56-4.76 3.2 1.21 4.97-2.46 3.93-1.98 4.08.97 4.84-1.39 4.23.05 4.55-2.33 3.98-.94 4.32-.06 4.51-2.75 3.92-1.05 4.3-.68 4.38-1.03 4.3 1.24 4.75-4.14 3.71.95 4.68-.75 4.36.16 4.52-1.59 4.21.04 4.49-1.69 4.2-.33 4.42-1.45 4.24-.69 4.37 1.72 4.74-3.41 3.96-.55 4.39-.54 4.39 1.9 4.72-2.02 4.18-.74 4.36-.53 4.38-2.21 4.16 2.33 4.75-2.09 4.18-.19 6.1-4.94-1.93-4.03-2.06-.14-3.18 1.69-4.13-1.07-4.49 2.78-3.98-1.25-4.51.05-4.35-.45-4.42 3.01-3.94-1.83-4.61 1.53-4.14 1.39-4.15-.46-4.43 1.81-4.09 1.42-4.14-1.15-4.56.1-4.36 3.21-3.84-1.05-4.56 1.79-4.06 2.78-3.88-1.48-4.66.15-4.37 2.73-3.87.93-4.21-2.03-4.82 4.02-3.57-2.14-4.87 2.09-3.97 2.47-3.87.25-4.37.76-4.26 2.36-3.86-.48-4.83 2.08-4.18.88-4.49-.41-4.85 3.11-3.87 1.26-4.38 1.85-5.2-5.21-.72-4.12.7-4.06-1.13-4.45 2.53-4.19-.72-3.56-3.12-4.36.04-3.63-2.15-3.86-1.58-3.97-2.46-3.63-2.95-3.2-3.43-3.83-2.63-4-4.39-4.1 4.28-3.61 2.89-2.59 4.28-5.06.83-3.1 3.87-4.4.43-2.67 4.64-4.74-.96-3.74 2.48-4.62-2.43-3.77 4.12-4.27.33-4.21-2.4-5.56-.61.94 5.86 3.77 3.62 2.51 4.05-1.24 5.08 2.15 4.16 2.56 4.07-2.15 5.25 2.6 3.8 1.27 4.13 2.24 3.91-1.58 4.78 1.43 4.1.07 4.39 2.86 3.81-.98 4.6 2.8 3.84 1.28 4.15-.05 4.41-.57 4.49.08 4.37 3.55 3.75-1.79 4.69 2.25 3.99.08 4.36 1.64 4.1.87 4.23-.97 4.52 2.84 3.94-.25 4.4-.24 4.4-.24 4.39 1.47 4.15 1.96 4.08-.68 4.44-1.23 4.51 4.04 3.82-1.27 4.51 1 4.22-.28 2.79-3.8 3.46-4.61-1.26zm-52.19-199.59l-1.39 3.14-2.71 5.03 1.06 4.04 2.49 3.46 3.49 2.55 3.91 1.71 4.44-.24 3.62 1.06v-3.69l-1.76-3.28-2.88-2.95-3.68-2.21-.89-4.14-3.16-2.27-2.54-2.23zm168.53 0l-1.8 3.13-4.06 1.23-3.01 2.68-2.57 3.11-1.98 3.5-1.44 3.43-.04 3.67 3.61-1.04 4.45.27 3.74-2.02 2.76-3.33 1.08-4.01 3.15-2.51-1.61-5.72-2.29-2.4zM407.44 383l-3.81 2.51-4.22-1.26-4.14.63-3.96 1.83-3.3 4.33-1.16 5.15 1.87 4.89 1.15 4.1.3 4.69 2.45 3.71 3.45 2.91 1.87-.7 1.32 4.81 3.3 3.32 2.88 3.63 2.39 4.19 3.86-3.01 1.77-4.52 2.59-3.86 4.11-2.73-.39-1 3.03-3.2 1.46-4.21 1.68-3.97-.28-4.39 1.41-4.49-1.35-4.45-1.12-5.51-4.03-2.16-4.08-1.65-4.65 2.51-3.94-.61-.45-1.49z"/><path fill="#391900" d="M314.73 622.98l-.26 1.44 2.05 4.18 2.67 3.71 1.61 4.59 5.08 1.18 3.44 2.67 3.43 3.42 4.46 1.5 4.71-.46 4.39 1.65 4.39-2.75 4.39.79 4.39-1.44 4.39 2.97 4.39-1.56 4.4-.08 4.39.21 4.39 2.23 4.39-3.92 4.4 2.29 4.39-1.88 4.39 1.92 4.4-2.15 4.39 3.34 4.39-1.78 4.4.55 4.39-.53 4.39.89 4.39-.35 4.4 1.55 4.39-1.31 4.4-.47 4.39 1.11 4.4.17 4.39-1.35 4.4.3 4.4-1.07 4.4.99 4.4-.77 4.5-.31 4.14-1.8 5.16.31 3.25-3.59 4.27-2.29 2.04-4.37 2.74-3.81 2.2-4.27-1.07-2.45-4.39 2.64-4.32-1.77-4.33.68-4.33.67-4.32-2.41-4.33 1.4-4.32-.25-4.32 1.86-4.33-.08-4.33.15-4.32-.3-4.33-1.42-4.33 1-4.33-1.64-4.32 1.12-4.33.24-4.33-.06-4.32-.54-4.33 1.33-4.33.6-4.33-1.77-4.33-1.33-4.33 1.85-4.32-1.99-4.33.4-4.33.24-4.33 1.43-4.33-2.42-4.33 1.82-4.33-.81-4.33.18-4.33 2.31-4.33-2.5-4.33-1.01-4.33.3-4.33 1.15-4.33 1.15-4.33.69-4.33-3.07-4.33 1.19-4.34.09-4.22-.9-4.49.58z"/><path fill="#f5d05e" d="M416.92 115.64c.66-1.47 1.31-2.95 1.97-4.42.4-.89.87-1.75 1.08-2.7s.36-1.87.54-2.8c.12-.65.26-1.3.37-1.95.41-2.29.13-3.79-.8-5.89l-.36-.81-1.98-4.41-1.17 9.09c1.01-1.3 2.01-2.6 3.02-3.89s2.23-2.62 2.7-4.3c.54-1.97.1-3.65-.44-5.46-.41-1.37-.91-2.74-1.19-4.14-.32-1.62-.55-3.25-.82-4.88v3.99c.37-1.69.75-3.38 1.12-5.08-.64 1.1-1.29 2.21-1.93 3.31 1.07-1.35 2.15-2.69 3.22-4.04l.6-.75c1.83-2.31 2.59-4.36 2-7.38-.13-.68-.3-1.35-.45-2.03-.45-2.03-.87-3.79-1.79-5.68-.76-1.56-1.53-3.11-2.29-4.67v7.57c1.02-1.64 2.15-3.24 3.07-4.93 1.51-2.77.9-5.97.73-8.97l-.27 1.99c.74-2.55 1.97-5.37 1.61-8.04-.29-2.13-1.08-4.2-1.68-6.27v3.99c.53-2.53 1.55-5.51 1.2-8.07-.28-2.11-.88-4.18-1.37-6.24l.27 1.99c.04-1.72.09-3.43.13-5.15.1-3.92-3.52-7.68-7.5-7.5s-7.39 3.29-7.5 7.5c-.06 2.35-.36 4.83.14 7.15.37 1.75.82 3.49 1.24 5.24v-3.99c-.53 2.53-1.55 5.51-1.2 8.07.29 2.13 1.08 4.2 1.68 6.27v-3.99c-.58 1.99-1.33 3.99-1.61 6.05-.27 2.03.05 4.14.17 6.18l1.02-3.79c-1.84 2.95-4.46 6.05-3.97 9.72.37 2.76 2.29 5.64 3.51 8.14l-.76-1.79c.38 1.75.77 3.49 1.15 5.24.64-2.43 1.29-4.86 1.93-7.3-1.03 1.3-2.07 2.59-3.1 3.89s-2.23 2.63-2.72 4.31c-.2.67-.3 1.38-.45 2.06-.2.91-.42 1.82-.6 2.74-.3 1.46-.29 2.79-.06 4.26.03.21.07.43.11.64.26 1.54.43 3.12.79 4.64.42 1.76 1.04 3.48 1.55 5.22.64-2.43 1.29-4.86 1.93-7.3-1.26 1.63-2.52 3.26-3.79 4.89-1.05 1.36-1.83 2.55-2.06 4.31s.15 3.13.89 4.78c.8 1.78 1.59 3.55 2.39 5.33-.25-1.93-.5-3.85-.76-5.78-.32 1.7-.65 3.39-.97 5.09l.76-1.79c-.74 1.67-1.49 3.33-2.23 5-.85 1.9-1.33 3.69-.76 5.78.48 1.74 1.82 3.63 3.45 4.48 1.74.92 3.85 1.38 5.78.76 1.74-.56 3.7-1.7 4.48-3.45zM568.34 148.41c1.19-1.27 2.37-2.54 3.56-3.82 1.43-1.54 2.22-3.21 3.16-5.06 1.3-2.56 2.93-4.87 4.35-7.35.95-1.65 1.83-3.35 2.74-5.02-1.49 1.15-2.99 2.3-4.48 3.45 2.23-.51 4.47-.98 6.69-1.53 2.42-.59 4.13-2.2 5.38-4.26l2.13-3.54c.12-.2.26-.4.37-.61.37-.71-1.11 1.36-1.06 1.34.35-.12.75-.58 1.03-.81 1.1-.86 2.22-1.69 3.29-2.58 1.97-1.65 2.74-4.6 3.73-6.88.86-1.98 1.84-3.92 2.76-5.88l-2.69 2.69 4.86-2.13c1.61-.71 2.82-1.59 3.82-3.22.42-.68.8-1.39 1.2-2.09 1.03-1.8 1.99-3.51 2.72-5.47l1.89-5.07c-.64 1.1-1.29 2.21-1.93 3.31 2.22-1.78 5.05-3.42 6.19-6.13.91-2.17 1.79-4.35 2.69-6.53-1.15 1.49-2.3 2.99-3.45 4.48.9-.61 1.8-1.23 2.7-1.84 1.71-1.17 4.02-2.43 4.99-4.26 1.25-2.37 1.88-5.18 2.72-7.71l-5.24 5.24c2.39-.54 4.78-1.08 7.17-1.63 1.57-.36 2.94-1.45 3.9-2.69 1.09-1.41 1.42-2.76 1.61-4.54l.75-6.91c.2-1.79-.98-4.08-2.2-5.3-1.3-1.3-3.44-2.28-5.3-2.2s-3.95.72-5.3 2.2c-1.43 1.55-1.97 3.22-2.2 5.3l-.75 6.91c1.84-2.41 3.67-4.82 5.51-7.23-2.36.54-4.82.93-7.14 1.62-2.78.83-4.45 2.87-5.36 5.52-.23.66-.44 1.32-.66 1.98-.4 1.22-.81 2.44-1.21 3.65 1.15-1.49 2.3-2.99 3.45-4.48-.87.59-1.74 1.18-2.6 1.77-1.55 1.06-3.36 2.09-4.51 3.57s-1.72 3.46-2.4 5.14c-.42 1.01-.83 2.03-1.25 3.04.64-1.1 1.29-2.21 1.93-3.31-2.22 1.78-5.05 3.42-6.19 6.13-.92 2.19-1.7 4.44-2.53 6.66.25-.6.5-1.19.76-1.79-.98 1.71-1.96 3.41-2.93 5.12l2.69-2.69c-1.94.85-3.93 1.63-5.83 2.56-2.83 1.39-4 5.2-5.25 7.89-.83 1.8-1.72 3.64-2.4 5.5-.03.08-.14.23-.14.32 0-.08 1.64-1.76 1.01-1.38-.47.28-.89.7-1.32 1.04-1.01.79-2.06 1.55-3.04 2.39-1.05.89-1.76 2.36-2.47 3.54-.63 1.05-1.26 2.09-1.89 3.14 1.49-1.15 2.99-2.3 4.48-3.45l-6.56 1.5c-2.4.55-4.28 2.11-5.44 4.24-.65 1.19-1.29 2.37-1.94 3.56-.97 1.77-2.1 3.46-3.17 5.16-1.09 1.72-1.92 3.6-2.84 5.42-.09.18-.24.38-.29.57-.13.49 1.52-1.77 1.01-1.29-.46.42-.86.92-1.29 1.38-.86.92-1.72 1.84-2.57 2.76-2.68 2.87-3.06 7.8 0 10.61s7.75 3.06 10.61 0zM658.14 250.52c3.54-.07 8.19.5 11.09-1.74 1.54-1.19 2.58-3.08 3.67-4.69.67-1 1.34-2 2.01-2.99l-8.47 3.45c2.38.37 4.75.77 7.13 1.12 2.16.32 4.14.25 6.06-.88.56-.33 1.11-.71 1.66-1.06 1.03-.66 2.07-1.33 3.1-1.99-.6.25-1.19.5-1.79.76 3.62-1.35 7.17-2.75 10.69-4.35.67-.3 1.36-.57 2.01-.91 1.05-.55 1.88-1.54 2.69-2.39 1.09-1.14 2.13-2.34 3.28-3.41 1.43-1.33 2.93-2.6 4.4-3.9-1.77.73-3.54 1.46-5.3 2.2 3.55-.05 8.19.56 11.12-1.7 1.55-1.19 2.58-3.08 3.66-4.71.67-1 1.33-2.01 2-3.01-1.49 1.15-2.99 2.3-4.48 3.45 2.2-.31 4.42-.53 6.6-.94 2.46-.46 4.9-.8 7.22-1.75 1.28-.52 2.55-1.05 3.83-1.57 1.74-.72 3.13-1.61 4.7-2.62 2.17-1.39 4.17-2.94 6.22-4.52.19-.14.37-.28.56-.43 1.47-1.13 1.67-1.33 2.8-2.81.4-.52.79-1.04 1.19-1.55l2.7-3.54c-2.16 1.24-4.32 2.48-6.48 3.71 1.82.18 3.64.37 5.45.55s3.56.26 5.31-.87c.62-.4 1.21-.89 1.81-1.32 1.66-1.22 3.61-2.38 5-3.9 1.25-1.37 2.5-2.74 3.74-4.11 2.64-2.9 3.08-7.78 0-10.61-2.88-2.64-7.79-3.1-10.61 0-.65.71-1.3 1.43-1.95 2.14-.69.75-1.77 1.58-2.26 2.48-.13.24 2.09-1.57 1.33-1.03-.17.12-.34.25-.51.38-.54.4-1.08.79-1.62 1.19-.83.61-1.67 1.22-2.5 1.83 1.26-.34 2.52-.68 3.79-1.02-2.58-.26-5.4-.92-7.98-.57-2.56.34-4.01 1.66-5.51 3.62l-.29.38-1.36 1.78c-.76.99-1.51 1.98-2.27 2.97l2.69-2.69c-1.58 1.21-3.12 2.5-4.74 3.64-1.61 1.13-3.32 2.13-4.97 3.2.6-.25 1.19-.5 1.79-.76-1.68.69-3.36 1.42-5.06 2.08-1.51.58-3.24.72-4.83 1.02-1.44.28-2.87.49-4.32.69-1.03.14-2.08.25-3.1.43-2.27.41-3.9 2.08-5.12 3.93l-3.44 5.18 6.48-3.71c-1.85.03-3.7.05-5.55.08-.31 0-.62 0-.92.01-2.13.11-3.83.86-5.45 2.23-.63.54-1.24 1.1-1.87 1.66-1.12 1-2.27 1.96-3.31 3.04-.77.8-1.54 1.61-2.31 2.41-.33.34-.67.68-.99 1.03-.92 1.02 1.03-.78 1.13-.8-.92.15-2.01.91-2.86 1.3l-2.46 1.12 1.79-.76c-2.15.8-4.33 1.56-6.45 2.45-2.09.88-3.96 2.34-5.87 3.57 1.93-.25 3.85-.5 5.78-.76-2.4-.38-4.8-.76-7.2-1.13-1.73-.27-3.22-.32-4.88.38-1.56.66-2.63 1.65-3.59 3.07-1.25 1.86-2.5 3.72-3.74 5.58 2.16-1.24 4.32-2.48 6.48-3.71-2.18.04-4.37.09-6.55.13-3.92.08-7.68 3.39-7.5 7.5.18 3.99 3.3 7.59 7.5 7.5zM689.7 401.12c3.63 1.24 7.55 3.27 11.28 1.11 1.86-1.08 3.61-2.44 5.39-3.65l-1.79.76c1.81-.37 3.63-.75 5.44-1.12l-1.99.27 5.47.24c-1.77-.73-3.54-1.46-5.3-2.2 1.85 1.5 3.69 3 5.54 4.5 2.67 2.16 5.96 2.93 9.09 1.17 1.8-1.01 3.61-2.02 5.41-3.03-1.26.34-2.52.68-3.79 1.02 2.51.2 4.96.59 7.46.18 1.82-.3 3.63-.63 5.45-.94h-3.99c1.57.3 3.14.61 4.71.91s3.21.58 4.87.11c.8-.23 1.58-.51 2.37-.76 2.78-.89 5.55-1.54 8.39-2.19l-1.99.27 5.46.06-3.79-1.02 5.53 3.85c2.22 1.54 5.32 1.19 7.57 0 1.8-.96 3.61-1.92 5.41-2.88l-1.79.76c1.81-.49 3.63-.98 5.44-1.46l-1.99.27c1.79.17 3.68.55 5.47.51s3.67-.48 5.45-.72l-1.99-.27c1.83.54 3.66 1.09 5.49 1.63 3.76 1.12 8.34-1.34 9.23-5.24.92-4.03-1.21-8.03-5.24-9.23-1.82-.54-3.63-1.19-5.48-1.63-2.56-.6-4.9.39-7.44.45-1.82.04-3.67-.44-5.49-.51-1.48-.06-3.17.59-4.59.97-.94.25-1.9.48-2.83.76-2.51.77-4.9 2.41-7.21 3.63h7.57c-1.43-1-2.87-2-4.3-2.99-1.29-.9-2.34-1.52-4.02-1.75-1.05-.14-2.06-.15-3.11-.16-2.09-.02-4.04-.06-6.1.41-1.58.36-3.2.65-4.76 1.09-1.8.51-3.57 1.14-5.35 1.71h3.99l-2.86-.55c-1.39-.27-3.22-.84-4.61-.77-2.47.11-5.01.79-7.44 1.21l1.99-.27c-3.18-.26-6.3-.93-9.28.6-1.83.93-3.59 2.02-5.38 3.02l9.09 1.17c-1.44-1.17-2.88-2.34-4.33-3.51-1.68-1.37-3.24-2.74-5.52-3.05-1.08-.15-2.15-.18-3.24-.23-1.02-.04-2.04-.12-3.05-.13-1.13-.01-2.29.29-3.41.52-2.13.44-4.46.65-6.33 1.84-1.72 1.1-3.38 2.29-5.07 3.43 1.93-.25 3.85-.5 5.78-.76-1.83-.62-3.66-1.25-5.49-1.87-3.72-1.26-8.36 1.45-9.23 5.24-.95 4.16 1.26 7.87 5.24 9.23zM670.3 525.87c3.68 1.65 7.39 3.22 11.13 4.73l-3.64-2.8c1.08 1.68 2.11 3.41 3.25 5.05 1.03 1.48 2.32 2.39 4.02 2.91.57.18 1.15.33 1.73.49l3.04.87-2.69-1.57c1.32 1.62 2.55 3.59 4.21 4.87 1.43 1.11 2.94 1.26 4.64 1.59l1.92.38c.22.04.45.1.67.13.84.11-.95-.32-1.21-.55 1.35 1.21 3.07 2.18 4.58 3.19 1.05.71 2.11 1.4 3.16 2.11.22.15.65.57.92.61.07.01-1.66-1.35-1.05-.8.19.17.39.33.58.49 1.79 1.52 3.52 3.34 5.69 4.28 1.83.79 3.62 1.55 5.38 2.48.98.52 1.95 1.06 2.95 1.56 1.25.62 2.51.88 3.86 1.2l1.91.46c.21.05.42.12.63.15.99.16-1.07-.37-1.12-.53.05.18.78.49.93.59l1.9 1.19c4.06 2.55 8.87 3.37 13.51 4.3l-3.64-2.8c1.05 1.72 2.04 3.51 3.17 5.18 1.6 2.35 3.44 2.77 5.9 3.15l3.23.5c1.68.26 3.17.28 4.69-.61 1.26-.74 2.47-2.19 2.8-3.64.66-2.91-.89-6.98-4.25-7.49l-5.49-.84 3.64 2.8c-1.05-1.72-2.06-3.48-3.17-5.17-2.14-3.27-5.62-3.03-8.96-3.87-.88-.22-1.74-.54-2.6-.81-.61-.19-1.22-.39-1.83-.58-.19-.06-.39-.14-.58-.18-.52-.12 1.52.79 1.25.52-.81-.78-2.11-1.32-3.06-1.92-1-.63-1.93-1.19-3.09-1.52-1.24-.35-2.52-.61-3.78-.92-.37-.09-.75-.22-1.12-.27-.34-.05 1.99.94 1.26.52-.21-.12-.44-.23-.65-.34-1.77-.94-3.51-1.89-5.35-2.68-1.06-.45-2.14-1.07-3.25-1.4.71.21 1.68 1.36.71.53l-1.57-1.34a61.275 61.275 0 0 0-5.87-4.42c-1.92-1.28-3.8-2.63-5.71-3.93-2.01-1.36-4.89-1.49-7.23-1.94.9.52 1.79 1.04 2.69 1.57-1.18-1.44-2.27-3.08-3.59-4.4-1.87-1.87-5.36-2.33-7.84-3.04l3.64 2.8c-.86-1.34-1.72-2.67-2.58-4.01-.79-1.23-1.58-2.4-2.85-3.22-.79-.51-2.09-.87-3-1.24l-2.66-1.07c-.22-.09-.44-.18-.67-.27 2.57.99 1.6.68 1 .41l-4.35-1.95c-1.54-.69-3-1.08-4.69-.61-1.41.39-2.94 1.48-3.64 2.8-1.41 2.66-.92 6.94 2.19 8.33z"/><path fill="#f5d05e" d="M669.59 527.08c3.8 1.7 7.61 3.32 11.47 4.87-1.49-1.15-2.99-2.3-4.48-3.45 1.08 1.68 2.11 3.4 3.25 5.05 1.23 1.79 2.8 2.92 4.87 3.56.57.18 1.15.33 1.73.49l3.04.87c-1.1-.64-2.21-1.29-3.31-1.93 1.18 1.45 2.28 3.07 3.59 4.4 2.2 2.24 5.77 2.41 8.69 2.98l-1.79-.76c1.57 1.1 3.13 2.23 4.73 3.29 1.15.76 2.29 1.53 3.44 2.29.16.11.32.22.49.32.64.4-2.02-1.64-1.37-1.06.43.38.87.74 1.31 1.11.89.76 1.77 1.53 2.67 2.27 1.37 1.14 2.57 1.63 4.17 2.32 2.04.88 3.96 1.88 5.93 2.92 2.52 1.33 5.19 1.84 7.94 2.51-.6-.25-1.19-.5-1.79-.76 1.28.8 2.55 1.6 3.83 2.41 1.52.96 3.26 1.41 4.95 1.95 2.61.82 5.22 1.34 7.91 1.87-1.49-1.15-2.99-2.3-4.48-3.45 1.05 1.72 2.05 3.51 3.17 5.18 1.16 1.72 2.85 3.15 4.93 3.52.6.11 1.21.19 1.81.28 1.08.17 2.15.33 3.23.5 2.07.32 3.9.34 5.78-.76 1.56-.91 3.04-2.69 3.45-4.48.44-1.92.34-4.07-.76-5.78-.99-1.53-2.6-3.16-4.48-3.45s-3.66-.56-5.49-.84c1.49 1.15 2.99 2.3 4.48 3.45-.83-1.36-1.67-2.72-2.5-4.08-.9-1.48-1.86-2.82-3.37-3.79-1.09-.7-2.29-.86-3.52-1.1-3-.6-5.8-1.41-8.72-2.33l1.79.76c-1.94-1.22-4-2.91-6.24-3.55-1.73-.49-3.51-.85-5.26-1.28l1.79.76c-1.68-.89-3.33-1.89-5.08-2.64-1.26-.55-2.53-1.09-3.79-1.63-.17-.07-.36-.18-.54-.23-.71-.21 2.01 1.64 1.37 1.07-.43-.38-.87-.74-1.31-1.11-2.13-1.81-4.27-3.5-6.59-5.05-1.85-1.23-3.66-2.49-5.48-3.76-2.34-1.64-5.26-1.85-8-2.39 1.1.64 2.21 1.29 3.31 1.93-1.18-1.45-2.28-3.07-3.59-4.4-2.05-2.08-5.73-2.62-8.46-3.4 1.49 1.15 2.99 2.3 4.48 3.45-1.08-1.68-2.11-3.4-3.24-5.04-1.2-1.74-2.56-2.66-4.49-3.46-.1-.04-.21-.08-.31-.13-.56-.23-1.11-.45-1.67-.67-.97-.39-1.93-.78-2.9-1.17.6.25 1.19.5 1.79.76-1.6-.72-3.19-1.43-4.79-2.15-1.9-.85-3.7-1.33-5.78-.76-1.74.48-3.63 1.82-4.48 3.45-1.73 3.27-1.13 8.55 2.69 10.26zM282.85 136.14l-1.59-4.96c-.68-2.13-1.68-4.04-3.72-5.22-.7-.41-1.44-.76-2.16-1.14-1.2-.63-2.46-1.2-3.57-1.97-1.41-.98-2.81-1.96-4.22-2.94 1.15 1.49 2.3 2.99 3.45 4.48-.3-1.75-.6-3.5-.91-5.26s-.94-3.07-2.15-4.38c-.59-.63-1.24-1.22-1.85-1.83-1.04-1.03-2.07-2.05-3.07-3.12-1.36-1.46-2.74-3.35-4.56-4.27s-3.59-1.59-5.38-2.38l2.69 2.69c-1.02-1.55-2.04-3.09-3.07-4.64l.76 1.79c-.36-.95-.72-1.9-1.07-2.85-.65-1.71-1.22-3.74-2.33-5.17-1.7-2.2-4.75-3.54-7.11-4.97 1.15 1.49 2.3 2.99 3.45 4.48-.42-2.35-.57-4.95-1.5-7.15-1.5-3.56-5.37-4.67-8.6-6.18l2.69 2.69c-1.64-2.49-3.29-4.98-4.96-7.44-.4-.59-.8-1.19-1.21-1.78-1.04-1.48-2.14-2.42-3.67-3.19l-4.42-2.23c1.15 1.49 2.3 2.99 3.45 4.48-.25-1.73-.5-3.45-.74-5.18s-.79-3.13-2.12-4.56c-.54-.58-1.12-1.14-1.68-1.71-1.37-1.4-2.66-2.92-4.47-3.76-1.6-.74-3.2-1.49-4.8-2.23-1.87-.87-3.72-1.32-5.78-.76-1.74.48-3.63 1.82-4.48 3.45-1.75 3.31-1.11 8.5 2.69 10.26l2.55 1.19c.88.41 1.99 1.19 2.95 1.37.17.03-1.68-1.44-1.39-1.06.11.15.27.27.4.41l1.29 1.31 2.12 2.15c-.64-1.1-1.29-2.21-1.93-3.31.34 2.38.36 5.09 1.3 7.31 1.46 3.47 5.32 4.72 8.46 6.3l-2.69-2.69c1.68 2.47 3.35 4.93 4.99 7.42.4.6.78 1.21 1.19 1.8 1.04 1.51 2.14 2.44 3.69 3.17s3.03 1.42 4.54 2.13c-1.15-1.49-2.3-2.99-3.45-4.48.37 2.06.58 4.23 1.13 6.25 1.01 3.78 5.34 5.63 8.45 7.52-1.15-1.49-2.3-2.99-3.45-4.48.69 1.82 1.36 3.65 2.06 5.46.9 2.32 2.39 4.39 3.81 6.42 1.31 1.88 2.55 2.65 4.44 3.49 1.14.5 2.27 1.01 3.41 1.51 1.29.57-.61-.47-.95-.88.29.35.63.68.94 1.01.85.91 1.69 1.83 2.55 2.74 1.35 1.42 2.78 2.76 4.18 4.14-.64-1.1-1.29-2.21-1.93-3.31l.87 5.07c.06.34.11.69.18 1.03.43 2.08 1.84 3.48 3.48 4.67.58.42 1.17.81 1.76 1.22 1.16.81 2.29 1.7 3.55 2.37 1.56.83 3.13 1.66 4.69 2.49-1.15-1.49-2.3-2.99-3.45-4.48.61 1.89 1.22 3.78 1.82 5.67 1.2 3.73 5.26 6.52 9.23 5.24 3.73-1.21 6.52-5.23 5.24-9.23zM170.82 222c-.91-.47-1.82-.94-2.72-1.4l-1.73-.89c-1.39-.72-2.73-1.1-4.33-1.31l-5.92-.78 3.79 1.02c-3.46-1.49-6.86-3.05-10.25-4.69l2.69 2.69c-.91-1.62-1.82-3.24-2.72-4.87-.85-1.52-1.84-2.71-3.32-3.77-.72-.52-1.46-1.01-2.2-1.51-.77-.53-1.53-1.13-2.34-1.61-.97-.57-2.09-.89-3.16-1.23-2.09-.66-4.23-1.58-6.45-1.58-2.05 0-4.11.16-6.15.24 2.16 1.24 4.32 2.48 6.48 3.71-.81-1.64-1.62-3.29-2.43-4.93-.82-1.66-1.62-3.06-3.37-4.07-.63-.37-1.31-.67-1.95-1.01-.92-.47-1.83-.96-2.76-1.42-1.54-.78-3.09-1.15-4.79-1.19l-5.54-.12c2.16 1.24 4.32 2.48 6.48 3.71-1.11-1.49-2.22-2.97-3.33-4.46-.14-.19-.29-.38-.43-.58-1.38-1.84-2.51-2.71-4.68-3.52-.94-.35-1.88-.68-2.81-1.03-.77-.28-1.53-.6-2.31-.84-1.77-.54-3.6-.07-5.37.22l-5.53.92c1.93.25 3.85.5 5.78.76-2.4-1.78-4.77-3.53-7.27-5.17-2.28-1.5-4.54-3.25-6.95-4.53-1.6-.85-3.31-1.54-4.95-2.31-1.87-.87-3.72-1.32-5.78-.76-1.74.48-3.63 1.82-4.48 3.45-1.75 3.32-1.11 8.49 2.69 10.26 1.7.79 3.51 1.47 5.14 2.4 1.66.94 3.22 2.1 4.81 3.15s3.27 2.08 4.84 3.2c.99.71 1.97 1.46 2.95 2.19.4.3.8.63 1.22.9 1.84 1.22 3.91 1.24 6.03.9 2.29-.37 4.57-.76 6.86-1.14h-3.99c1.78.65 3.55 1.29 5.33 1.94-1.49-1.15-2.99-2.3-4.48-3.45.68.9 1.35 1.81 2.03 2.71 1.23 1.64 2.66 4.08 4.42 5.01 2.89 1.53 6.83 1.09 10.03 1.15l-3.79-1.02c1.67.86 3.34 1.72 5 2.58l-2.69-2.69c1.04 2.1 2.07 4.21 3.11 6.31 1.11 2.25 4.01 3.81 6.48 3.71 2.15-.08 4.3-.17 6.44-.25l-1.99-.27c1.81.57 3.63 1.15 5.44 1.72l-1.79-.76c1.56 1.07 3.12 2.15 4.68 3.22l-2.69-2.69c.88 1.56 1.75 3.13 2.63 4.69s1.76 2.97 3.38 3.92c.66.39 1.4.68 2.08 1.01 1.35.65 2.69 1.32 4.06 1.91 1.04.45 2.07.89 3.11 1.34.3.13.6.26.91.39.58.25 1.27.63 1.87.79.65.18 1.44.19 2.11.28 1.93.26 3.87.51 5.8.76l-3.79-1.02c1.67.86 3.34 1.72 5 2.58 3.48 1.8 8.3 1.02 10.26-2.69 1.82-3.44 1.03-8.34-2.69-10.26zM134.57 369.6c-2.49-.07-5.44-.57-7.88.11-1.99.55-3.95 1.27-5.92 1.9l1.99-.27c-3.94.16-7.84.23-11.78.22l3.79 1.02-4.7-3.23c-.97-.66-1.78-1.28-3.01-1.53-.97-.2-1.97-.3-2.94-.45-.92-.14-1.84-.29-2.76-.42-1.08-.16-1.96-.29-3.04-.14-.39.05-.77.1-1.16.16l-1.26.18c-1.19.17-2.37.33-3.56.5-1.09.15-2.01.54-3.01 1.04-1.9.95-3.77 1.95-5.66 2.93h7.57c-1.52-1.17-3.05-2.34-4.57-3.51s-2.83-1.84-5.02-1.96c-.81-.04-1.63-.05-2.44-.07-1.04-.03-2.08-.08-3.12-.09-1.78-.02-3.29.66-4.86 1.36-1.73.77-3.45 1.54-5.18 2.31h7.57c-1.69-.86-3.38-1.73-5.07-2.59-1.53-.78-3.07-1.49-4.85-1.38-1.04.07-2.09.2-3.13.3-.82.08-1.63.15-2.45.24-2.14.23-3.45.78-5.06 1.89s-3.15 2.17-4.72 3.25c1.93-.25 3.85-.5 5.78-.76-3.71-.7-7.41-1.31-11.16-1.81-2.85-.38-5.78-1-8.64-1.1-1.89-.06-3.8.04-5.69.07-3.92.05-7.68 3.42-7.5 7.5s3.3 7.55 7.5 7.5l4.97-.06c1.3-.02 2.56.2 3.86.37 2.94.38 5.87.77 8.81 1.15l-1.99-.27c3.55.67 8.49 2.32 11.7.31 2.02-1.27 3.95-2.72 5.92-4.08l-3.79 1.02 5.9-.57c-1.26-.34-2.52-.68-3.79-1.02 1.04.53 2.09 1.07 3.13 1.6 1.94.99 4.28 2.5 6.48 2.4s4.39-1.29 6.42-2.2c1.1-.49 2.2-.98 3.31-1.47l-3.79 1.02 5.88.17-3.79-1.02 5.79 4.44c2.13 1.63 5.39 1.13 7.57 0 1.98-1.03 3.97-2.06 5.95-3.08l-1.79.76c1.97-.27 3.94-.55 5.9-.82h-3.99c1.96.3 3.91.6 5.87.89-.6-.25-1.19-.5-1.79-.76 1.54 1.06 3.08 2.11 4.61 3.17s2.96 1.73 4.98 1.84c.81.04 1.64 0 2.45 0 1.52 0 3.03.03 4.54-.03 2.2-.09 4.78.11 6.92-.5 1.94-.56 3.86-1.24 5.78-1.86l-1.99.27c1.96.05 3.92.11 5.88.16 3.92.11 7.68-3.53 7.5-7.5-.19-4.16-3.29-7.38-7.5-7.5zM162.06 502.63c-1.43.85-2.86 1.7-4.29 2.56-1.76 1.05-2.82 2.42-4.11 3.95-.53.63-1.16 1.24-1.61 1.93-.19.28-.87.72.63-.43 1.36-1.05.92-.68.62-.49s-.61.42-.91.63c-1.24.85-2.46 1.74-3.71 2.56-1.52.99-3.07 1.93-4.6 2.9l3.79-1.02-5.5-.19c-.34-.01-.67-.03-1.01-.03-1.51 0-2.68.46-4.02 1.04-.81.35-1.62.71-2.42 1.07-.86.38-1.79.71-2.62 1.15-.95.5-1.86 1.43-2.7 2.14-1.65 1.4-3.41 2.63-4.56 4.51-1.06 1.73-2.05 3.51-3.08 5.26l6.48-3.71-5.54-.48c-1.83-.16-3.42-.05-5.16.9-.67.37-1.33.79-1.99 1.18-.88.53-1.78 1.03-2.65 1.58-1.41.88-2.37 2.05-3.27 3.39-1.02 1.52-2.03 3.04-3.05 4.56 2.16-1.24 4.32-2.48 6.48-3.71-1.83.17-3.66.35-5.49.52-.23.02-.46.04-.7.07-2.32.24-3.59.86-5.41 2.27-.78.6-1.55 1.21-2.33 1.81-.67.52-1.39 1.01-2.02 1.57-.96.84-1.27 1.72-1.72 2.78-.73 1.7-1.45 3.39-2.18 5.09 1.49-1.15 2.99-2.3 4.48-3.45-5.87 2.34-11.58 4.95-17.3 7.62-1.61.75-2.99 2.83-3.45 4.48-.49 1.8-.27 4.19.76 5.78 2.37 3.67 6.45 4.47 10.26 2.69 3.41-1.59 6.82-3.18 10.23-4.76l-1.79.76c1.58-.63 3.15-1.26 4.73-1.89 2.05-.82 4.06-1.7 5.1-3.83.39-.79.7-1.64 1.05-2.45.42-.97.83-1.94 1.25-2.91.11-.25.25-.5.33-.76 0-.01-1.87 1.95-.83 1.21 1.42-1.02 2.77-2.15 4.14-3.22-1.77.73-3.54 1.46-5.3 2.2 1.11-.11 2.23-.21 3.34-.32 2.1-.2 4.9-.17 6.64-1.3 2.65-1.71 4.4-5.25 6.13-7.84l-2.69 2.69c1.61-.96 3.21-1.91 4.82-2.87-1.26.34-2.52.68-3.79 1.02l6.92.6c2.57.22 5.23-1.59 6.48-3.71.83-1.42 1.66-2.84 2.5-4.26.17-.3.36-.59.52-.89.6-1.08-.57.88-.93 1.13.59-.42 1.12-.95 1.67-1.41.73-.61 1.45-1.23 2.18-1.84 1.41-1.2-2.28 1.32-.5.54 1.54-.68 3.07-1.35 4.61-2.03l-3.79 1.02c2.12.07 4.24.2 6.36.22 3.24.03 5.8-2.07 8.41-3.71 1.64-1.03 3.23-2.17 4.81-3.29 2.11-1.5 3.57-3.49 5.22-5.46.1-.12.27-.27.34-.41.09-.18-2.05 1.41-1.3 1.02.55-.28 1.07-.64 1.59-.95 1.01-.6 2.03-1.21 3.04-1.81 3.37-2.01 4.9-6.84 2.69-10.26s-6.65-4.84-10.26-2.69z"/></svg>
