<?xml version="1.0" encoding="UTF-8"?>
<svg xmlns="http://www.w3.org/2000/svg" viewBox="0 0 800 800" width="800" height="800"><path fill="#b74701" fill-rule="evenodd" d="M369.41 446.3l-.33 7 1.68 6.94-.8 7.02-1.57 7.05 1.83 6.94 1.63 6.93-.59 7.03-.67 7.03 1.79 6.92-1.08 7.05 1.2 6.95 1 6.95-1.34 7.07.87 6.96 1.25 6.94-1.59 7.09 2.43 6.87-.09 7.02.74 6.96.81 6.96-.22 7.03.58 6.98.73 6.96 1.2 6.92-1.71 7.17.97 6.94 1.14 6.93-.19 7.05.92 6.95.52 7 2.98 6.65-.93 7.23 3.79 6.4.52 7.01 1.61 6.98 5.27 3.22 4.56 4.42 6.34.53 5.5-2.98 4.62-3.45 3.07-5.13 3.45-6.23-.33-7.12.84-6.85.05-6.93 2.64-6.81-.69-6.96-1.47-6.96 1.6-6.91-1.12-6.93.55-6.94-1.33-6.92 2.85-6.93-.89-6.91-.37-6.93.05-7.35.15-7.35 1.65-7.31-2.3-7.42.38-7.36 2.67-7.2-1.32-2.34 1.73 6.83 1.72 6.9-1.48 7.14 1.13 6.94.74 6.98 1.81 6.9.81 6.97-.47 7.07 1.16 6.95.28 7.01.37 7.01-1.6 7.15 1.94 6.89 1.22 6.95.81 6.97-.81 7.09-.21 7.09 2.76 6.66 1.97 6.66 3.78 6.03 6.85.14 7.15-.48 4.35-5.66 3.35-6.04 1.88-6.62 2.78-6.4.88-6.85.22-6.92.18-6.87 3.08-6.54-1.5-7.04-.16-6.87 1.62-6.75 1.07-6.79.23-6.86-1.46-6.91 1.84-6.79.71-6.84.7-6.85-2.63-6.89 1.61-6.84-1.22-6.86-.28-6.85 2.18-7.03.58-7.04-.92-6.99-1.06-6.98-.14-7.01-.02-7.02-.56-7 .66-7.06-1.27-6.96.21-7.04-2.91-6.84.09-7.04-.7-6.98 1.25-7.11-.14-7.01-.03-7.01-1.51-6.87 4.59-5.2 4.48-5.38 5.81-4.17 4.08-5.76 5.42-4.6 3.1-6.51 3.84-5.84 5.06-5.05 2.41-6.72 3.81-5.89 4.06-5.86 1.41-7.01 2.18-6.64 1.36-6.87 2-6.68 1.16-6.87 1.68-6.64 2.63-6.45.02-6.96 2.35-6.54 1.44-6.86-3.95-6.14-7.27-.08-6.21-.35-4.44 5.49-3.71 5.92-1.99 6.75-4.69 5.46-.54 7.4-3.17 6.17-2.5 6.52-5.53 4.94-1.78 6.94-2.84 6.43-6.13 4.27-4.12 5.51-3.45 6.08-5.24 4.55-5.35 4.32-4.36 5.57-5.34 4.6-6.5 2.72-6.97 1.25-5.89 4.33-7.45-.7-6.86 3.26-7.29-.39-7.13-1.4-7.15-1.28-5.96-4.48-6.67-2.5-6.5-3.06-6.46-3.36-4.53-5.81-6.16-3.88-5.21-4.95-3.72-6.33-5.62-4.59-2.71-7.01-6.54-3.95-3.18-6.57-4.86-5.28-4.11-5.85-3-6.7-4.73-5.41-4.59-5.55-6.36-3.72-5.42-4.56-7.47-.62-4.81 5.75-.54 7.12.85 6.94 2.76 6.48 1.34 7.14 3.94 5.98 4.66 5.47 2.7 6.68 3.49 6.24 5.08 5.1 4.33 5.62 3.88 6 4.23 5.74 5.25 4.87 4.2 5.79 5.67 4.44 4 6.03 6.24 3.81 4.21 5.9 6.23 3.68 3.73 6.64 7.57 2.89-.8 8.31-.14 8.14.57 8.13z"/><path fill="#b74701" fill-rule="evenodd" d="M416.67 298.37l7.6 1.08 7.31 2.31 5.75 5.05 5.34 5.14 4.62 5.85 1.92 7.22 3.27 6.76.99 7.47-.54 7.54-1.81 7.36-4.02 6.42-5.75 4.81-3.45 7-7.58 1.69-6.35 3.65-7.3-.27-7.04-.91-7.37-.93-6.77-3.33-5.29-5.39-3.85-6.41-2.42-6.96-2.95-6.84.37-7.43-.83-7.52 3.59-6.7 3.5-6.3 3.53-6.34 4.67-5.8 6.58-3.48 6.62-3.88 7.41.23.25-1.09zM211.5 381.15l5.9-.65 5.76-1.4 4.66-3.76 4.58-3.37 3.05-4.81 3.33-4.35 3.58-4.52 1.54-5.53-.61-5.72-.68-5.48.61-6.06-2.93-5.08-3.79-4.36-2.85-5.41-5.01-3.29-5.76-1.58-5.48-2.18-5.9-.58-5.94.36-5.79 1.44-5.31 2.74-3.98 4.46-3.32 4.62-3.06 4.6-3.97 4.39-2.72 5.41-.44 6 1.27 5.87 2.84 5.21 2.76 4.89 2.27 5.34 3.15 5.2 5.24 2.94 6.3-.04 5.12 2.24 5.58 2.46z"/><path fill="#b74701" fill-rule="evenodd" d="M317.9 410.65l-5.16-1.99-5.57-.01-6.15 3.21-6.92-2.34-6.31 1.6-.72 1.01-4.99-3.23-5.51 1.47-5.41-.19-5.21-1.96-6.34 1.86-5.8-2.11-5.65-2.88-6.1.02-6.28.6-5.67-2.37-6.28.04-5.52-2.77-5.97-1.29-4.88-4.18-5.38-2.65-6.41-.59-5.32-2.95-4.71-3.92-5.23-3.07-5.54-2.76-3.01-5.84-6.03-2.37-4.28-4.36-1.49-6.59-3.96-4.5-4.54-4.35-.48-6.56-3.79-4.85-2.97-5.29-3.41-5.12-2.52-5.52-1.22-6.06-1.05-6.13-3.11-5.26-1.66-5.95-5.03-4.2-3.73-3.98-5.48-.67-6.37.32-3.66 5.5.74 6.36 1.17 5.84-1.45 5.91 1.36 5.77-1.45 6.22 2.12 5.64 1.65 5.68 1.98 5.59 1.68 5.65 2.47 5.4 1.12 5.83 1.6 5.69 3.04 5.52 1.34 6.27 3.73 5.12 1.59 6.31 5.47 4.02 3.98 4.85 1.85 6.24 3.35 5.21-.32 6.13 2.48 5.84-.7 6.19 1.52 6.01-.87 6.14.51 6.08.26 6.1-1.59 6.05 3.09 6.26-3.16 5.91-.22 6.09-.88 5.9.42 6.23-3.91 5.36-.22 6.11.43 6.28-.55 6.08-1.29 5.91-1.6 5.83-1.62 5.83-3.4 5.38-2.8 5.51 1.34 6.6-.79 6.06-4.51 5.01.87 6.55-3.16 5.37-.29 5.65 1 5.72 4.19 4.55 4.59 4.07 4.82 3.75 4.91 3.62 4.37 4.64 5.67 2.54 4.79 2.72 3.67 4.61-1.16 6.04 1.28 5.68 2.7 5.33 1.29 5.6 1.21 5.65.08 6.3 4.43 4.29 3.43 4.66 4.47 3.9 5.94 1.66 4.94-4.19.8-5.97 1.78-5.64.6-5.9-.64-5.95 1.45-5.94-2.43-5.86 1.53-5.83 5.44 1.53 5.77.25 5.68-1.99 1.46.14-1.06 6.68 2.23 5.82.86 6.21 4.49 5.1 1.64 5.96.57 6.36 1.76 5.99 3.6 5.22 3.64 5 4.21 3.14 5.18 1.14 5.39-1.44 2.46-5.6 2.21-5.89 1.68-5.94-3.78-5.76 1.56-5.98.52-5.94.21-5.94-2.23-5.73-2.04-5.73 1.98-6.14-.91-5.23 4.09-4.61 6.31-2.1 3.52-5.74 4.79-4.11 6.22-3.05 3.02-5.83 3.74-5.55-2.64-3.22-4.18-4.4-3.41-4.89-1.33-6.18-3.51-4.83-3.12-5.07-4.08-4.47-3.11-5.08-3.1-5.08-3.3-4.97-2.01-5.74-2.24-5.47-4.4-4.81-.15-6.34-3.19-5.3-1.09-5.99-.77-6.03-1.99-5.36.41-5.76-2.06-5.48 2.05-5.77-.18-5.61-1.67-5.64 2.08-5.6-1.75-5.82 6.39.19 6.36.57 6.18-1.82 6.34.04 6.04-2.43 6.07-1.65 6.44.35 6.41-.34 5.22-4.38 6.18.92.26-1.95 6.47.1 5.86-2.91 5.96-2.57 6.77.02 5.81-6.95-1.44-5.72-2.06-5.2zM612.92 379.51l-5.86.83-5.32-2.52-6.02-.95-4.72-3.67-3.21-5.05-3.23-4.71-3.38-4.83.3-6.01-.19-5.56-1.86-5.9 4.15-4.77 2.65-4.73.8-6.33 3.68-4.74 6.65-.5 4.87-2.41 4.91-3.45 5.78.72 5.82-.85 6.02.47 4.58 4.09 4.14 3.94 3.53 4.28 5.92 2.87 1.95 5.69-.38 6.06.47 5.56.27 5.7-1.15 5.64-1.49 5.8-3.87 4.52-5.77 2.22-3.47 4.82-4.99 3.11-5.63 1.94-5.95-1.28z"/><path fill="#b74701" fill-rule="evenodd" d="M507.33 411.53l4.73-.31 5.21-3.3 6.67.32 6.1 3.28 6.48.81.9.05 5.12-.9 5.36.3 5.49-.28 5.41-.82 5.68-3.07 6.13.31 6.06-.4 5.54-3.27 6.08-.25 5.98-.88 5.93-1.17 5.66-2.16 6.1-.83 6.02-1.3 5.58-2.49 4.97-3.71 5.28-2.98 4.43-4.3 4.46-4.07 6.69-1.12 3.43-5.35 5.38-3.06 3.21-5.32 5.5-3.35 2.98-5.4 3.44-5.06-.02-6.84 2.95-5.24 4.36-4.65 3.05-5.29 2.36-5.58.84-6.22 3.02-5.3.71-6.3 3.95-4.87 3.59-4.89 3.06-5.92 6.17.58 6.59.7 2.53 6.07 1.13 5.97-1.24 5.96 1.35 5.97-.76 5.9-3.2 5.44 1.72 6.35-4.54 5 .97 6.33-1.55 5.7-2.69 5.35-2.01 5.54-2.6 5.33-2.92 5.47-2.61 5.58-.64 6.68-2.17 5.99-4.76 4.46-1.96 6.18-4.75 4.37-4.57 4.74-1.67 6.22 1.51 6.35-1.76 5.98.8 6.18-2.09 6.04 3.06 6.16-3.23 6.12 1.84 6.08-.47 6.14-.3 6.16 3.65 5.79-1.82 6.32 1.71 5.83.26 6.12 1.14 5.94 2.49 5.64 1.36 5.88.08 6.19 3.36 5.41 1.43 5.86 1.41 5.88 2.16 5.67-.28 6.32 3.07 5.44-.2 6.33 2.22 5.65 3.73 5.18 1.96 6.28-4.21 5.5-5.59 3.26-3.04 5.5-5.83 2.45-3.47 5.6-4.95 3.76-6 1.86-5.3 2.8.88 5.83-3.03 5.43.34 5.99-2.6 5.39-.89 5.78-3 5.12-1.43 5.65-1.6 5.84-5.94 2.57-3.93 3.58-5.25 3.74-5.45-4.37-.06-6.33-3.29-5.44.43-6.04-.92-5.94 1.66-5.94.52-5.91-1.48-5.2-4.94-.39-5.69-1.06-5.67.27 1.33 1.23-4.79 5.12-1.39 6.02-.44 6.31-3.29 5.45-1.02 6.16-.73 6.3-4.42 4.91-.72 6.39-3.73 4.96-2.96 6.07-6.42-1.85-6.72-.25-.79-6.85-1.96-5.85.4-5.8-.63-5.9 1.46-5.81.73-5.84-.1-5.91-2.29-6.12 2.14-5.74 2.69-5.63-.09-6.66-6.41-2.85-6.28-2.26-3.18-6.18-5.98-2.98-3.16-5.75-3.48-5.31-4.7-4.59 1.58-3.61 2.65-5.33 4.9-3.97 3.69-4.72 2.32-5.56 3.15-5.06 2.72-5.31 2.73-5.32 4.73-4.07 1.56-6.05 3.88-4.6 2.46-5.48.63-6.17 1.59-5.8 2.41-5.53 4.65-4.87-.1-6.31.51-5.64 3.47-5.24-3.18-5.99 2.99-5.48.19-5.68-.04-5.69.9-5.71-1.54-6.25-6.9.6-6.39 1.17-6.14-2.33-6.27-.62-6.31-.31-5.87-3.09-6.43.28-6.58.33-5.54-3.58-5.85-1.72-.33 1.38-5.7-3.96-6.75.29-5.97-2.53-6.19-1.54-6-6.63 1.85-5.58 2.4-4.45z"/><path fill="#b74701" d="M327.19 187.55l-5.87-2.03-3.58-5.12-.84-6.02-3.36-5.35 1.88-6.74-2.54-5.56-2.06-5.7-1.59-5.82-1.12-5.94-3.18-5.4-1.8-5.77.78-8.04 7.03-3 6.33 1.25 3.25 5.15 3.44 5.32-.36 6.34 2.47 5.58 2.32 5.62-.15 6.29 1.86 5.74 2.67 5.54 3.18 5.4-1.84 6.74.83 6.33-5.37 4.45-2.38.74zM408.49 175.59l-6.93-1.54-3.53-6.93-.44-6.03.53-6.04-.13-6.03 1.89-6.04-.19-6.04.79-6.03-2.23-6.04.78-6.05-.23-6.04 3.4-6.29 6.29-1.83 5.65 2.47 4.25 5.65-.59 6.03.49 6.04-.1 6.04-1.34 6.03-1.06 6.04 2.81 6.04-1.63 6.04-.58 6.04 1.15 6.04-2.29 6.76-6.76 1.71zM489.8 187.14l-2-1.74-5.81-3-1.48-7 1.79-5.76 1.74-5.78.37-6.14 2.88-5.48 1.41-5.87 3.44-5.32-1.27-6.58 2.89-5.48 2.25-5.65 3.45-5.45 6.28.37 5.62 2.8.36 6.47-.94 5.99-2.65 5.53-.96 5.99-.25 6.17-1.1 5.95-4.4 5.07-.91 6 .38 6.35-1.19 5.94-3.76 5.35-6.14 1.27zM565.49 219.27l-4.83-1.67-3.23-6.19.15-6.73 3.25-5.08 4.26-4.51 2.84-5.32 3.11-5.17.89-6.45 4.53-4.35 2.72-5.4 3.39-5.01 2.66-5.44 5.36-3.52 5.95 1.13 6.1 4.05-3.28 6.52-3.26 5.09-3.2 5.12-.99 6.39-3.9 4.71-2.04 5.79-4.85 4.16-2.61 5.47-1.72 5.97-2.5 5.53-4.24 2.82-4.56 2.09zM630.53 267.44l-7.12-1.13-.05-7.09.09-7.05 4.33-4.2 3.87-4.67 5.21-3.32 3.36-5.19 5.43-3.11 3.98-4.55 5.57-2.98 1.81-6.74 5.23-3.31 6.69-2.89 7.22 2.35 2.82 7.22-3.71 6.33-5.26 3.28-2.7 5.84-3.6 4.93-5.33 3.21-5.13 3.41-2.37 6.17-6.63 1.91-2.81 5.74-3.66 4.88-7.24.96zM186.39 267.88l-7.52-1.16-4.43-4.13-1.68-6.85-5.52-3.02-5.34-3.19-2.76-5.78-4.63-3.91-4.36-4.18-4.95-3.6-4.41-4.15-.72-7.13.85-7 7-2.87 6.9 2.97 4.22 4.32 4.16 4.37 3.26 5.29 5.48 3.06 4.68 3.85 2.99 5.55 3.85 4.69 5.84 2.71 4.21 4.35 2.96 7.15-2.5 7.61-7.58 1.05zM251.42 217.11l-4.69.23-2.18-4.13-2.59-5.47-5.74-3.65-3.12-5.17-1.03-6.36-2.71-5.41-4.33-4.46-3.43-4.99-.71-6.56-4.5-4.38-2.36-7.2 6.39-3.76 6.45-3.67 4.61 5.89 4.76 4.21 3.06 5.2.84 6.48 4.02 4.64 2.58 5.48 1.78 5.94 4.75 4.22 2.05 5.79 3.15 5.15.42 6.15-3 5.83h-4.47z"/><path fill="#fed141" fill-rule="evenodd" d="M347.95 446.3l-.33 7 1.68 6.94-.8 7.02-1.57 7.05 1.82 6.94 1.64 6.93-.6 7.03-.67 7.03 1.8 6.92-1.08 7.05 1.2 6.95 1 6.95-1.34 7.07.86 6.96 1.25 6.94-1.58 7.09 2.43 6.87-.09 7.02.73 6.96.81 6.96-.21 7.03.58 6.98.72 6.96 1.21 6.92-1.71 7.17.96 6.94 1.14 6.93-.18 7.05.92 6.95.52 7 2.97 6.65-.92 7.23 3.78 6.4.53 7.01 1.61 6.98 5.27 3.22 4.56 4.42 6.34.53 5.49-2.98 4.63-3.45 3.07-5.13 3.45-6.23-.33-7.12.84-6.85.04-6.93 2.65-6.81-.69-6.96-1.48-6.96 1.61-6.91-1.13-6.93.55-6.94-1.33-6.92 2.86-6.93-.9-6.91-.37-6.93.06-7.35.14-7.35 1.66-7.31-2.3-7.42.37-7.36 2.68-7.2-1.32-2.34 1.73 6.83 1.71 6.9-1.47 7.14 1.12 6.94.74 6.98 1.82 6.9.81 6.97-.47 7.07 1.16 6.95.28 7.01.37 7.01-1.61 7.15 1.94 6.89 1.23 6.95.8 6.97-.81 7.09-.2 7.09 2.76 6.66 1.97 6.66 3.77 6.03 6.86.14 7.15-.48 4.34-5.66 3.35-6.04 1.88-6.62 2.78-6.4.88-6.85.22-6.92.19-6.87 3.08-6.54-1.5-7.04-.17-6.87 1.62-6.75 1.08-6.79.23-6.86-1.46-6.91 1.84-6.79.7-6.84.71-6.85-2.63-6.89 1.6-6.84-1.21-6.86-.29-6.85 2.18-7.03.59-7.04-.92-6.99-1.07-6.98-.14-7.01-.01-7.02-.57-7 .66-7.06-1.27-6.96.22-7.04-2.91-6.84.09-7.04-.7-6.98 1.25-7.11-.14-7.01-.03-7.01-1.52-6.87 4.59-5.2 4.49-5.38 5.81-4.17 4.07-5.76 5.43-4.6 3.1-6.51 3.84-5.84 5.06-5.05 2.4-6.72 3.82-5.89 4.05-5.86 1.42-7.01 2.18-6.64 1.35-6.87 2.01-6.68 1.16-6.87 1.68-6.64 2.63-6.45.02-6.96 2.35-6.54 1.43-6.86-3.94-6.14-7.27-.08-6.21-.35-4.45 5.49-3.7 5.92-2 6.75-4.69 5.46-.53 7.4-3.17 6.17-2.51 6.52-5.53 4.94-1.77 6.94-2.85 6.43-6.12 4.27-4.12 5.51-3.45 6.08-5.24 4.55-5.35 4.32-4.37 5.57-5.34 4.6-6.49 2.72-6.97 1.25-5.89 4.33-7.46-.7-6.86 3.26-7.29-.39-7.12-1.4-7.15-1.28-5.97-4.48-6.66-2.5-6.5-3.06-6.46-3.36-4.54-5.81-6.15-3.88-5.22-4.95-3.71-6.33-5.62-4.59-2.71-7.01-6.54-3.95-3.18-6.57-4.87-5.28-4.1-5.85-3-6.7-4.73-5.41-4.59-5.55-6.36-3.72-5.42-4.56-7.47-.62-4.82 5.75-.53 7.12.85 6.94 2.75 6.48 1.35 7.14 3.94 5.98 4.66 5.47 2.7 6.68 3.48 6.24 5.09 5.1 4.33 5.62 3.88 6 4.22 5.74 5.25 4.87 4.21 5.79 5.67 4.44 3.99 6.03 6.25 3.81 4.2 5.9 6.24 3.68 3.73 6.64 7.57 2.89-.8 8.31-.14 8.14.57 8.13z"/><path fill="#fed141" fill-rule="evenodd" d="M395.2 298.37l7.6 1.08 7.32 2.31 5.75 5.05 5.33 5.14 4.62 5.85 1.92 7.22 3.27 6.76 1 7.47-.55 7.54-1.8 7.36-4.02 6.42-5.75 4.81-3.46 7-7.58 1.69-6.34 3.65-7.31-.27-7.03-.91-7.37-.93-6.78-3.33-5.28-5.39-3.86-6.41-2.41-6.96-2.96-6.84.37-7.43-.83-7.52 3.6-6.7 3.5-6.3 3.53-6.34 4.66-5.8 6.58-3.48 6.63-3.88 7.4.23.25-1.09z"/><path fill="#e87722" fill-rule="evenodd" d="M187.08 377.97l5.46.08 6.36 1.52 4.78-3.74 4.77-3.28 4.95-3.4 2.4-5.51 2.48-5.23 1.32-5.63-1.37-5.74 1.69-5.79-.56-5.96-3.58-4.82-2.37-5.53-4.31-4.15-5.88-1.72-4.63-3.67-5.55-2.18-5.96 2.86-5.42.3-5.18 1.6-5.32 1.53-4.06 3.76-6.51 1.57-2.62 5.41-3.08 5.09-1.11 5.84 2.06 5.86-1.47 5.77.56 5.93 2.33 5.52 3.69 4.71 4.07 4.36 5.51 2.37 5.79.89 4.92 3.57 5.84-2.19z"/><path fill="#e87722" fill-rule="evenodd" d="M292.56 411.65l-4.43-1.71-5.38-1.29-6.55.53-6.06 3.57-6.53.95-1-1.45-5-2.78-5.44-.47-5.5 1.89-5.43-.49-5.64-3.37-6.33 1.69-5.65-2.94-5.79-1.74-6.06-.34-5.78-1.66-5.79-1.57-5.63-2.05-5.83-1.44-6.69.6-4.17-5.59-5.77-1.8-5.25-2.87-6.26-1.34-4.55-4.11-3.74-5.03-5.49-2.78-3.94-4.6-4.73-3.8-3.02-5.26-2.89-5.22-5.45-3.8-.3-6.68-4.79-4.37-1.17-6.12-3.05-5.27-2.32-5.6-3.14-5.24-2.99-5.3-2.16-5.64-2.39-5.53-3.28-4.96-2.33-6.53-6.28.17-4.97 2.95-1.72 5.24-3.05 5.22 1.9 5.9-3.27 6.05 2.74 5.67 1.23 5.74.14 5.98 1.99 5.59 2.24 5.49 1.67 5.63.79 5.92 2.63 5.33-.09 6.28 4.99 4.73 1.64 6.06 1.01 6.52 3.7 5.13 5.39 4.05 1.93 6.14 3.08 5.46 2.41 5.56 2.07 5.54 1.52 5.98.2 6.13-1.65 6.21 2.1 6.01v6.11l.98 6.12-2.99 6.03 1.9 6.19-2.67 5.92.79 6.17-2.29 5.66 1.32 6.39-1.36 5.89-2.9 5.55-.72 6.02-2.44 5.64 1.75 6.6-2.71 5.56-2.7 5.56-1.5 5.84.18 6.28-1.79 5.78-.59 6.11-3.05 5.42-2.14 5.67-.64 6.11-1.3 5.6 2.57 5.07 2.53 5.87 6.43 2.19 3.4 5.39 4.15 4.83 6.84.63 4.64 4.24 6.58 1.71.46 6.41-1.57 6.13 3.53 5.28-1.14 6.22 3.76 5.04-.52 6.33 2.97 5.19 5.18 3.72 1.99 5.65 5.17 2.53 5.4 2.53 4.3-4.24 2.11-5.43 1.9-5.71-.43-6 1.85-5.91.45-5.99-2.75-5.88-.15-6.58 6.36-.63 5.6 1.58 5.65-1.35 1.22 1.19.37 6.3.65 6.25 3.59 5.4 1.84 5.9.94 6.2 1.48 6.06 3.4 5.33 1.64 6.04 3.36 5.25 3.78 5.41 6.33-1.66 6.49-.44.29-6.9 3.23-5.53.65-5.9.07-5.92.34-5.95-2.64-5.72-.15-5.89-1.49-5.79-.3-5.89.27-5.95.7-5.14 3.79-4.68 6.78-1.53 3.7-5.64 5.22-3.81 2.78-6.06 4.39-4.6 5.83-4.81-4.15-3.11-4.75-4.05-.65-6.6-3.84-4.63-1.94-5.8-4.85-4-1.75-5.91-4.29-4.35-1.68-5.97-6.23-3.15-.8-6.48-3.37-5.02-2.88-5.39-1.41-5.91-2.99-5.38 1-6.63-1.75-5.71-3.21-5.1.76-5.85-2.28-5.48.1-5.71 2.28-5.71-1.39-5.64.93-5.63-1.95-7.06 7.58 2.12 6.12-2.8 6.38.87 6.07-2.39 6.59 2.11 6.26-.99 5.98-2.37 6.12-1.41 6.11-1.56 5.6-1.17.39-.15 5.69-3.63 7.03 1.3 5.65-3.68 5.28-2.55 6.34-5.47-.13-5.78-3.56-3.91zM588.5 380.82l-5.75-1.14-5.35-2.1-5.4-1.94-4.71-3.29-3.37-4.66-4.56-3.81-.72-5.96-1.97-5.26-.59-5.62.85-5.56-.46-6.1 2.33-5.48 4.02-4.4 5.82-2.13 3.54-4.6 5.72-.86 4.73-4.17 5.87.89 5.62.55 5.75.65 5.32 2.32 4.82 3.28 3.34 4.78 1.99 5.36 4.03 4.25 1.87 5.46-.18 5.76.52 5.83-3.79 4.84.35 6.45-4.62 3.88-2.84 5.44-6.58.59-4.85 2.52-5.18 2.04-5.57 2.19z"/><path fill="#e87722" fill-rule="evenodd" d="M481.34 409.8l6.21.88 5.26-.93 6.28 1.39 6.54.21 6.51.42.63-.31 5.19-2.06 5.45-.16 5.36.14 5.36-.59 6.11.23 6.11.01 6.04-.64 5.7-2.51 6.2.12 5.71-2.23 5.45-3.02 6.07-.69 5.34-3 5.87-1.44 6.1-1.12 4.35-4.85 6.15-1.25 5.38-2.82 3.92-4.97 5.48-2.69 3.94-4.66 4.51-3.94 6.14-2.45 2.37-6 3.07-5.18 4.23-4.53 3.57-5.01.56-6.47 4.9-4.42.62-6.36 1.85-5.79 2.11-5.67 1.72-5.86 3.52-5.08 2.37-5.6 4.03-4.69 3.23-5.63 6.08.55 6.01 1.12 1.62 5.96 2.78 5.44-.88 5.99-1.3 5.78.55 5.96-1.8 5.66-1.81 5.61.24 6.09-1.29 5.76-1.93 5.58-.81 5.93-2.17 5.51-3.03 5.18-1.91 5.95-1.21 6.35-4.18 4.91-1.81 6.17-5.65 3.91-1.03 6.73-4.13 4.79-2.38 5.52-2.3 5.46-.87 6.04 1.38 6.24-1.36 6 .69 6.1-1.38 6.06-1.33 6.12 1.27 6.08.98 6.06-1.23 6.19 2.57 5.89.11 5.99.84 5.98.74 6.01 2.72 5.59-1.12 6.43 2.82 5.56-.56 6.33 2.43 5.63 1.49 5.86 2.21 5.67.15 6.2 3.33 5.38 1.35 5.89.97 6 2.83 5.47 2.51 5.53-1.79 6.2-2.74 4.32-1.48 6.58-5.84 2.83-4.41 4.17-5.27 3.05-3.84 5.45-5.62 2.64-5.4 2.16-1.32 5.28-.79 5.76-1.6 5.61-2.14 5.45-1.11 5.66-.33 5.99-2.97 5.07-1.49 5.88-4.28 4.25-4.98 3.19-5.74.3-5.82-2 .55-6.58-1.53-5.61-1.86-5.78-1.21-5.95 1.73-5.96-1.08-5.98 1.02-5.6-5.39.28-5.7 1.83-5.7-1.68.14-.21-3.25 5.52-1.87 5.89-.92 6.16.48 6.63-4.2 5.15-1.88 5.89-1.42 6.07-2.73 5.56-2.86 5.47-4.23 4.24-6.09 1.91-4.95-3.86-3.75-5.08-1.93-6.15 2.72-5.98-1.46-5.92-.36-5.93 1.59-5.79-1.2-6.01-.18-5.95 1.22-5.82 3.45-5.56-1.31-5.91-4.76-4.17-4.92-3.94-4.85-3.99-4.46-4.43-5.6-3.52-2.58-6.05-2.77-4.7.22-3.08 4.54-4.18 1.86-5.84 4.41-4.28 3.85-4.62 2.98-5.16.36-6.77 2.96-5.17 4.77-4.06 3.09-5.09 3.77-4.72-.14-6.63 5.38-4.44 1.17-6 .63-6.14 1.37-5.87 3.05-5.4 2.43-5.36-.19-5.81.58-5.67-.94-5.73 1.05-5.64.95-5.69-.95-5.66.13-6.79-7.26-.26-6.37 1.05-6.1-2.52-6.49 1.7-6.15-1.61-6.29-.51-6.06-1.8-6.19-1.14-5.59-3.04-6.28-1.08-.35 2.47-5.98-3.33-6.49-.66-5.84-2.99-5.2-2.81-7.74-5 3.32-5.65.08-6.34z"/><path fill="#fed141" d="M314.28 187.36l-5.47-3.6-2.25-5.05-1.21-5.92-1.8-5.76-2.33-5.62-.49-6.11-1.38-5.88-3.28-5.36-1.14-5.94-2.11-5.69-1.46-5.86-.56-7.85 7.36-2.41 7.25-1.02 2.97 6.74 3.12 5.41-.97 6.5 2.6 5.55 2.74 5.51 1.67 5.8 1.24 5.91 2.1 5.68.78 6.04 2.5 5.59-.63 7.99-6.66 4.43-2.59.92zM395.58 175.12l-7.2-2.02-2.95-7.2 2.14-6.03-2.76-6.04 3.27-6.03.19-6.04-1.97-6.04 1.53-6.03-.65-6.04 1.26-6.05-1.34-6.04 3.43-5.05 5.05-4.33 6.41 2.97 1.79 6.41-.48 6.03v6.04l-.01 6.03-.36 6.04 2.29 6.04-2.15 6.03 2.58 6.04-2.44 6.05.41 6.04-2.38 5.66-5.66 3.56zM476.89 184.53l-2.56 1.68-4.99-5.18-1.04-6.66 1.39-5.87 1.12-5.95 1.87-5.74 2.99-5.44-.5-6.38 2.21-5.65 3-5.45-.54-6.39 1.28-5.91 5.55-4.72 6.9-2.64 6.03 4.94.73 7.54-.52 6.1-2.01 5.71-1.56 5.83-2.2 5.65-1.08 5.96-2.34 5.61-2.77 5.51-1.01 5.98-2.9 5.47-.64 6.47-6.41-.47zM549.62 215.79l-4.66.29-5.12-5.43 2.14-7.02 2.94-5.27 3.08-5.19 4.39-4.42 2.28-5.65.61-6.62 3.81-4.76 3.69-4.84 4.56-4.34.17-6.87 6.66-4.49 7.18 1.99 3.61 5.85 3.04 6.7-2.14 5.82-3.27 5.08-4.82 4.18-2.39 5.58-4.58 4.33-2.4 5.57-1.68 6-2.01 5.81-5.38 3.67-4.57 2.75-5.14 1.28zM617.62 268.68l-6.31-4.42-1-6.27.58-6.69 5.61-2.92 3.23-5.31 3.62-4.91 4.93-3.61 3.17-5.37 4.15-4.39 6.35-2.19 3.34-5.21 5.03-3.53 5.7-5 6.79 3.91 1.65 6.79-2.81 5.63-4.1 4.44-4.71 3.83-3.7 4.84-3.52 5.01-3.85 4.69-6.12 2.41-3.35 5.2-4.75 3.8-4.13 4.43-5.8 4.84zM173.48 266.18l-5.54-2.7-5.84-2.67-4.33-4.21-3.85-4.69-4.84-3.7-3.35-5.19-3.26-5.28-5.75-2.79-3.54-5.01-3.28-5.27-4.91-5.11 4.55-5.47 5.47-2.42 5.29 2.6 4.75 3.78 3.82 4.72 6.49 2.05 2.36 6.18 4.26 4.28 5.25 3.28 4.56 3.98 3.89 4.67 4.89 3.65 3.7 7.13-5.07 5.76-5.72 2.43zM238.5 217.35l-5.08-.53-2.62-4.35-3.1-5.17-2.96-5.26-1.64-6.02-3.76-4.79-5.43-3.83-2.23-5.68-2.34-5.61-1.48-6.12-5.88-3.58-.55-7.99 5.27-5.26 6.63.11 6.14 3.01 3.93 4.69 2.77 5.36 1.21 6.27 3.65 4.86 1.46 6.12 3.63 4.87 4.37 4.45 4.03 4.64.56 6.65.97 5.89-3.69 4.76-3.86 2.51z"/></svg>
