<?xml version="1.0" encoding="UTF-8"?>
<svg xmlns="http://www.w3.org/2000/svg" xml:space="preserve" x="0" y="0" version="1.1" viewBox="0 0 1080 1080" width="800" height="800"><path fill="#B54A26" d="M306.24 350.93 309.48 344.85 313.43 339.42 319.41 335.93 328.67 337.79 332.44 330.32 339.85 328.98 344.87 323.63 350.26 318.9 356.7 315.97 361.9 310.87 368.11 307.47 376.77 308.17 383.21 305.12 389.71 306.28 386.62 312.95 386.17 319.63 387.92 326.35 383.58 333.05 386.6 339.75 387.73 346.48 385.27 353.19 388.03 359.91 387.37 366.61 383.69 373.33 389.15 380.08 387.79 386.83 386.36 393.59 381.53 397.36 375.64 393.91 368.88 391.95 363.84 387.1 357.72 384.03 352.24 379.9 346.75 375.79 340.74 372.6 334.52 369.68 329.65 364.47 324.07 360.4 317.39 358.17 310.16 357.93z"/><path fill="#B54A26" d="M524.84 372.52 520.25 373.23 513.3 377.24 506.35 372.03 499.4 374.07 492.43 373.9 485.47 375.84 478.52 375.6 471.55 376.61 464.59 377.86 457.64 371.65 450.71 373 443.77 376.44 436.79 371.6 429.83 373.51 422.87 372.54 415.89 377.24 408.92 375.64 401.94 371.97 394.98 373.33 388 375.53 381 374.48 373.98 373.05 366.65 375.15 368.72 367.77 366.06 360.69 365.13 353.63 365.76 346.54 366.8 339.43 369.56 332.31 366.19 324.43 373.92 327.04 380.88 323.01 387.83 325.28 394.78 324.53 401.74 322.23 408.71 323.94 415.66 323.33 422.62 322.54 429.59 325.97 436.53 326.06 443.47 328.53 450.41 326.63 457.38 326.11 464.35 325.96 471.31 321.98 478.29 322.1 485.26 323.97 492.24 324.86 499.19 327.36 506.18 324.95 513.18 325.79 520.2 324.32 525.82 326.57 526.27 332.26 526.11 339.35 524.34 346.4 528.09 353.5 529.31 360.6 528.53 367.99z"/><path fill="#B54A26" d="M220.95 514.83 225.75 511.28 229.28 508.72 233.07 501.01 239.32 497.74 244.73 493.06 252.35 492.09 259 489.49 264.33 484.66 271.68 483.27 276.42 477.41 282.07 473.04 287.39 468.09 294 465.33 297.44 470.2 302.35 476.88 300.58 483.56 302.22 490.28 300 496.98 302.43 503.68 299.65 510.4 297.39 517.11 296.66 523.83 301.74 530.54 302.42 537.27 302.02 544 297.27 550.76 296.2 557.51 293.02 563.81 289.46 556.43 284.2 551.95 275.83 552.71 269.91 549.3 264.27 545.45 258.61 541.62 255.17 534.09 248.24 532.36 242.51 528.6 236.3 525.6 229.54 523.58 225.15 519.35z"/><path fill="#B54A26" d="M492.7 538.42 486.21 537.73 479.34 541 472.47 535.88 465.62 540.62 458.76 541.3 451.91 538.36 445.05 539.57 438.19 541.78 431.31 537.02 424.44 535.98 417.58 541.23 410.72 536.26 403.84 539.09 396.97 536.62 390.1 541.79 383.23 537.08 376.35 538.7 369.49 540.34 362.65 538.23 355.79 538.52 348.9 541.45 342.03 541.4 335.16 541.68 328.26 538.68 321.38 540.43 314.49 538.1 307.62 535.8 300.72 538.85 293.81 536.24 286.88 541.24 282.15 536.62 277.98 531.7 281.91 524.61 281.92 517.56 278.19 510.47 279.31 503.36 278.15 496.24 281.09 490.21 286.81 488.12 293.69 488.08 300.55 490.94 307.4 486.4 314.26 486.29 321.11 487.11 327.97 486.71 334.84 488.72 341.71 486.97 348.58 486.46 355.44 492.29 362.3 488.22 369.18 491.05 376.05 487.28 382.92 491.12 389.8 488.39 396.67 490.57 403.53 490.57 410.37 488.81 417.23 490.21 424.12 488.3 430.99 491.43 437.86 487.06 444.76 489.95 451.64 489.2 458.54 487.21 465.4 489.71 472.3 487.25 479.21 488.85 486.14 488.22 492.53 489.64 491.46 496.19 494.98 503.28 492.42 510.33 490.03 517.42 490.79 524.53 490 531.57z"/><path fill="#B54A26" d="M795.24 671.6 803.32 667.36 803.62 659.2 807.02 652.97 810.59 646.83 818.02 643.2 822.58 637.69 824.33 630.36 825.36 622.6 829.75 617 833.36 610.91 839.2 606.18 839.98 598.34 848.24 595.01 851.19 588.46 852.76 581.54 856.85 576.03 860.11 570.05 861.15 563.09 866.13 557.8 867.34 550.98 870.75 544.96 869.71 537.54 870.63 530.83 877.93 525.62 873.61 517.76 876.39 511.43 878.28 504.87 881.16 498.36 880.86 491.47 881.66 484.69 878.78 477.82 882.12 471.02 878.82 464.25 882.27 457.13 876.6 450.76 879.95 443.43 876.53 436.99 873.86 430.55 871.47 424.12 875.24 416.07 873.56 409.32 865.69 404.65 869.34 396.04 861.55 391.72 860.93 384.55 861.01 376.88 857.84 370.68 850.93 366.58 849.75 359.3 845.55 353.78 839.26 349.75 835.67 343.94 833.73 336.78 829.65 331.19 825.11 325.96 818.54 322.66 815.46 316.06 809.08 312.76 802.59 309.76 800.91 301.18 792.4 300.77 789.33 293.49 784.15 288.83 777.26 286.69 771.76 282.51 766.33 278.11 759.28 276.62 753.5 272.83 746.76 271.04 740.72 267.74 733.46 267.48 728.93 259.89 720.59 263.16 715.73 255.43 708.76 254.6 701.37 255.88 694.46 255.58 688.38 250.4 680.81 254.81 674.56 247.63 667.43 247.69 660.29 248.84 653.25 249.48 646.3 252.51 639.18 248.91 632.26 250.66 625.58 253.94 618.66 254.43 611.2 252.11 604.5 254.49 597.59 255.75 591.09 258.56 584.46 260.76 577.36 261.58 570.18 262.49 563.83 265.63 559.07 272.19 550.67 270.83 545.27 275.73 540.73 281.82 533.59 283.22 528.64 288.28 520.06 287.95 516.96 295.55 511.02 299.14 503.7 301.19 500.82 308.45 492.96 310.21 489.5 316.63 484.91 321.85 482.85 329.24 478.35 334.39 474.58 340.11 465.27 341.8 463.25 348.91 459.65 354.84 454.77 360 453.65 367.38 448.35 372.38 447.15 379.57 440.4 384.03 438.28 390.75 439.18 398.63 437.35 405.3 430.53 410.21 429.79 417.32 428.18 424.07 426.96 430.91 424.64 437.43 423.35 444.25 425.73 449.83 428.4 455.54 431.31 461.82 431.37 469.91 437.13 474.43 437.82 480.32 439.62 487.38 436.33 493.66 434.42 500.58 429.43 506 427.01 512.67 421.17 517.73 419.64 524.85 417.23 531.55 411.78 536.8 407.21 542.46 405.65 549.6 401.99 555.68 401.94 563.55 396.96 569.04 397.53 577.25 394.3 583.62 391.01 588.85 391.01 595.23 395.91 599.51 398.02 606.44 404.74 607.56 411.04 610.17 417.81 610.43 423.74 615.07 431.26 613.17 433.65 620.35 430.52 627.76 436.02 634.35 432.51 641.8 435.19 648.65 433.6 655.88 432.76 663.06 436.91 669.79 437.59 676.84 434.96 684.2 436.58 691.19 436.62 698.31 436.68 705.44 441.45 712.09 442.24 719.16 443.44 726.2 440.58 733.64 443.03 740.58 445.54 746.68 448.47 752.91 454.36 756.68 461.25 755.73 468.12 754.45 474.98 759.33 481.83 758.86 488.71 759.56 495.58 756.5 502.46 757.67 509.31 754.82 516.19 756.47 523.08 754.61 530 757.79 536.39 757.87 539.82 763.87 536.48 770.41 536.9 776.96 536.47 783.49 539.61 790.04 539.76 796.61 537.22 803.2 538.29 809.79 540.62 816.08 540.08 823.66 546.6 827.29 551.72 831.24 556.79 837.07 564.1 836.98 571.11 835.16 578.12 834 585.14 839.19 592.17 835.37 599.21 834.1 606.24 839.79 613.26 837.2 620.28 836.36 627.32 835.38 634.36 834.95 641.39 834.41 648.42 839.19 655.47 835.38 662.48 836.01 669.49 836.19 676.5 833.87 683.55 837.7 690.59 837.05 697.62 837.58 704.68 840.26 711.72 838.96 718.78 838.62 725.8 835.46 732.87 836.07 739.94 836.86 747.03 838.08 754.12 835 761.27 839.03 766.51 832.01 773.69 832.32 778.79 827.87 784.53 824.33 787.02 817.82 792.17 813.3 792.38 806.35 799.77 801.15 795.63 793.92 796.4 787.15 798.99 780.38 800.09 773.61 794.43 766.84 799.79 760.08 798.2 753.34 798.32 746.58 796.78 739.8 797.26 733.03 795.32 726.26 798.96 719.46 798.51 712.68 795.54 705.89 795.77 699.13 793.99 692.33 797.94 685.52 796 678.86z"/><path fill="#B54A26" d="M537.2 446.2 534.69 439.75 541.75 439.48 545.63 431.98 551.19 427.55 559.66 428.06 563.65 420.93 572 421.22 578.4 418.19 584 413.85 590.82 411.49 593.99 402.94 603.09 404.39 606.06 395.44 614.44 401.63 611.15 408.3 612.79 414.98 612.4 421.7 610.51 428.4 613.85 435.11 611.38 441.83 612.93 448.54 609.91 455.26 609.08 461.95 610.96 468.68 609.54 475.42 615.3 482.19 610.73 488.94 607.25 492.86 602.12 488.13 596.19 484.78 588.85 483.81 583.78 478.96 579.64 472.57 571.95 472.17 567.58 466.21 561.14 463.66 555.31 460.07 548.47 458.14 542.38 454.97 537.79 451.01z"/><path fill="#B54A26" d="M734.22 470.77 727.3 473.17 720.38 468.6 713.47 467.06 706.54 471.84 699.64 469.34 692.75 472.56 685.85 469.01 678.92 472.26 672 469.78 665.08 470.73 658.14 469.35 651.22 467.98 644.28 470.18 637.37 467.39 630.42 472.3 623.47 468.91 616.49 471.66 609.52 472.12 603.85 467.14 595.58 467.38 593.74 459.99 592.82 453.45 594.96 445.37 592.48 437.28 595.07 431.3 595.97 423.73 602.56 420.48 609.52 418.15 616.44 420.01 623.35 420.16 630.27 418.69 637.19 420.72 644.09 417.95 650.98 419.64 657.88 422.97 664.82 422.01 671.73 422.93 678.65 417.79 685.59 420.53 692.52 418.47 699.46 417.45 706.37 418.36 713.31 417.2 720.27 422.68 727.24 418.24 734.22 419.3 741.84 418.89 747.83 423.67 748.15 431.51 752.02 437.28 749.42 445.37 753.01 453.45 752.54 461.05 745.9 465.14 741.48 470.99z"/><path fill="#FED141" d="M280.64 344.2 287.05 340.47 289.34 335.36 295.09 331.24 300.78 327.04 309.24 327.52 313.02 320.03 319.21 316.66 325.37 313.23 331.35 309.53 337.18 305.5 343.17 301.72 350.18 299.62 356.96 297.15 358.69 299.53 363.55 306.21 359.35 312.89 359.85 319.61 358.36 326.31 363.28 333.02 363.17 339.74 358.74 346.45 363.06 353.17 360.83 359.87 363.95 366.6 362.42 373.34 359.35 380.09 363.94 386.85 354.91 392.46 350.21 387.02 343.18 385.52 339.48 378.41 331.27 378.86 328.18 370.7 319.73 371.59 315.7 365.05 310.44 360.5 301.67 361.86 298.4 353.92 290.56 353.74 285.17 350.52z"/><path fill="#FED141" d="M499.61 366.07 494.73 369.74 487.78 370.37 480.83 365.88 473.88 368.52 466.91 365.22 459.95 369.66 453 368.71 446.03 365.38 439.07 367.75 432.12 371.07 425.19 368.37 418.25 365.34 411.27 369.38 404.31 369.47 397.35 365.91 390.37 365.33 383.4 369.69 376.42 371.15 369.46 366.39 362.48 367.91 355.48 368.46 348.46 369.96 340.09 369.45 340.26 361.03 341.68 353.95 343.31 346.89 341.6 339.8 339.99 332.69 344.48 325.57 341.46 318.47 348.4 320.92 355.36 319.85 362.31 320.03 369.26 321.63 376.22 320.89 383.18 320.14 390.14 315.28 397.1 318.27 404.07 319.72 411.01 317.2 417.95 318.7 424.89 318.67 431.86 321.35 438.82 318.57 445.78 320.16 452.77 321.1 459.74 319.78 466.72 318.19 473.67 317.62 480.66 318.39 487.66 315.96 494.68 318.47 500.8 319.34 502.75 325.52 499.15 332.61 499.86 339.66 503.26 346.76 499.3 353.86 500.73 360.82z"/><path fill="#391900" d="M197.73 508.05 197.93 502.79 203.29 501.1 208.02 495.06 214.08 491.48 220.59 488.68 226.34 484.52 232.73 481.47 237.61 475.88 244.91 474.41 252.37 473.16 258 468.76 262.98 463.22 270.33 461.73 274.78 463.46 275.55 470.14 274.92 476.82 273.9 483.54 271.37 490.24 275.1 496.94 272.19 503.66 276.55 510.38 276.59 517.1 271.58 523.79 277.41 530.53 272.43 537.26 272.66 544.02 277.14 550.78 269.29 554.05 262.93 551.4 255.69 550.26 251.62 543.77 244.79 541.89 238.75 538.7 234.86 531.9 228.33 529.58 223.59 524.17 215.08 525.08 210.03 520.14 205.91 513.5 198.25 514.34z"/><path fill="#391900" d="M468.43 532.89 460.69 528.84 453.82 532.61 446.95 531.43 440.1 534.71 433.24 534 426.39 532.92 419.53 534.1 412.67 529.6 405.79 534.84 398.92 532.53 392.06 530.06 385.2 534.9 378.32 532.37 371.45 533.7 364.58 529.14 357.7 532.29 350.83 534.87 343.97 534.22 337.13 529.29 330.27 529.83 323.38 531.16 316.51 529.45 309.64 533.62 302.74 529.19 295.86 533.78 288.97 530.54 282.1 533.34 275.2 529.4 268.29 532.1 261.36 529.01 252.8 533.64 253.96 524.96 257.3 517.88 256.47 510.82 253.38 503.73 252.52 496.62 257.08 489.5 255.42 483.33 261.29 480.88 268.17 483.91 275.03 484.93 281.88 482.1 288.74 484.12 295.59 479.21 302.45 479.52 309.32 484.35 316.19 484.49 323.06 483.35 329.92 481.81 336.78 479.37 343.66 485.38 350.53 479.43 357.4 484.14 364.28 482.07 371.15 480.45 378.01 479.19 384.85 482.27 391.71 483.44 398.6 479.8 405.47 480.08 412.34 480.11 419.24 479.63 426.12 484.2 433.02 479.19 439.88 483.01 446.78 484.43 453.69 481.17 460.62 480.73 465.85 484.05 469.42 489.45 470.38 496.54 465.75 503.59 466.7 510.69 466.61 517.79 468.57 524.85z"/><path fill="#E87722" d="M774.52 665.52 777.44 660.39 776.31 651.33 780.46 645.56 789.07 642.69 790.76 635.33 795.08 629.66 800.07 624.44 800.01 615.97 805.35 610.97 811.76 606.63 815.59 600.62 814.54 591.65 820.05 586.68 826.38 582.14 827.3 574.84 830.6 568.92 832.04 562.12 838.42 557.55 836.59 549.48 840.82 543.88 844.79 538.08 843.1 530.49 847.72 524.77 851.21 518.61 853.93 512.17 852.79 505.01 855.41 498.49 855.16 491.57 853.22 484.58 855.24 477.91 853.69 471.08 857.39 464.27 855.07 457.43 856.68 450.4 850.59 444.08 854.83 436.63 849.39 430.54 850.05 423.46 846.28 417.31 847.66 409.9 848.29 402.5 846.44 395.77 840.28 390.63 839.03 383.74 838.63 376.36 833.22 371.24 828.15 366.13 825.12 360.01 821.2 354.41 817.15 348.91 816.32 341.22 811.79 335.98 808.61 329.73 803.25 325.18 800.55 318.37 792.06 316.83 787.77 311.49 782.1 307.57 779.78 299.96 774.97 294.94 768.87 291.5 762.38 288.69 758.83 281.79 753.47 277.29 745.29 277.33 740.3 272.28 732.39 272.49 728.99 264.04 721.41 263.91 716.22 258.56 709.68 256.21 702.15 256.72 696.69 251.31 689.31 251.85 683.53 246.72 675.49 250.78 669.84 244.06 662.46 246.17 655.33 247.78 648.61 245.24 641.71 243.89 634.68 244.47 627.75 239.74 620.66 240.61 613.6 241.08 606.88 245.6 599.73 244.31 593.22 248.21 586.03 247.33 579.27 249.14 572.76 251.83 565.73 252.4 558.52 252.68 552.46 256.64 546.14 259.62 538.73 259.9 532.1 262.29 527.54 268.93 519.82 269.13 515.19 275.04 507.82 276.06 500.72 277.83 494.5 281.14 488.76 285.2 486.76 293.98 478.02 294.26 473.71 299.95 469.33 305.44 465.68 311.56 461.7 317.24 454.38 319.95 448.85 324.41 448.26 332.76 442.49 337.04 439.57 343.42 432.32 346.95 430.58 354.06 429.2 361.24 422.63 365.53 420.63 372.33 416.55 378.07 412.85 384.05 412.25 391.32 409.64 397.74 408.08 404.54 403.43 410.31 405.72 418.23 404.54 424.98 398.85 430.63 396.17 437.18 396.02 444.79 398.44 451.59 403.01 456.83 406.42 462.81 411.83 467.55 412.38 473.58 412.63 479.93 407.39 485.27 408.69 493.74 403.67 499.14 401.09 505.74 395.53 510.93 391.03 516.61 391.02 524.47 387.57 530.69 382.52 536.12 381.53 543.53 380.73 551 378.06 557.61 374.39 563.74 371.09 570.07 364.05 574.59 364 581.98 366.08 588.32 366.27 595.87 372.97 598.94 378.83 602.82 385.3 604.56 392.02 605.04 399.39 602.31 405.83 606.35 405.13 613.9 409.06 620.63 406.38 628 405.23 635.23 408.15 642.05 409.08 649.05 412.14 655.85 410.34 663.15 409.68 670.33 412.52 677.17 415.36 684.04 411.09 691.57 411.16 698.7 411.39 705.78 412.77 712.79 416.15 719.63 416.31 726.78 420.05 733.6 418.27 740.85 422.4 746.77 429.95 747.2 435.73 750.31 442.6 749.45 449.46 752.94 456.31 748.39 463.19 750.31 470.06 752.26 476.94 748.93 483.79 750.66 490.67 752.32 497.56 750.12 504.48 752.82 513.26 748.6 513.26 757.13 512.8 763.67 514.06 770.22 511 776.75 512.65 783.31 509.99 789.87 508.81 796.46 513.3 803.05 512.29 810.1 514.08 817.2 517.67 823.96 524.03 828.23 530.96 831.48 538.58 827.68 545.59 832.72 552.6 831.81 559.62 828.07 566.65 829.58 573.69 829.2 580.72 832.68 587.74 829.27 594.76 831.94 601.8 830.84 608.84 833.13 615.87 831.04 622.9 832.49 629.95 829.4 636.96 833.01 643.97 831.4 650.98 829.29 658.03 831.33 665.07 832.39 672.1 832.18 679.16 830.7 686.2 831.97 693.26 830.53 700.28 827.59 707.35 832.3 714.42 832.12 721.51 831.47 728.6 831.78 735.73 832.16 742.5 829.94 749.26 827.71 754.67 823.06 758.47 817.05 762.61 811.88 766.73 806.61 769 800.31 773.78 794.34 768.54 787.18 770.15 780.41 773.07 773.65 774.8 766.87 771.65 760.1 768.5 753.35 774.87 746.6 773.98 739.85 772.41 733.06 769.91 726.29 772.43 719.52 769.07 712.73 771.53 705.94 770.82 699.15 770.46 692.39 774.46 685.59 772.75 678.78 773.81 672.42z"/><path fill="#FFF" d="M510.24 439.48 511.92 435.1 515.81 431.96 521.24 427.16 528.17 425.05 533.19 419.71 540.16 417.63 544.06 410.36 551.1 408.44 556.67 404.04 564.72 403.78 569.29 397.58 574.94 393.18 580.77 389.1 584.42 394.88 584.22 401.56 589.28 408.25 584.45 414.96 589.83 421.67 587.55 428.37 583.91 435.09 588.62 441.8 587.79 448.53 583.9 455.21 584.94 461.94 586.02 468.68 584.1 475.44 583.8 482.2 581.71 486.15 575.03 484.03 568.6 481.53 565.98 472.59 559.64 469.9 551.43 470.37 545.1 467.68 540.22 462.57 536.49 455.47 529.22 454.29 524.45 448.87 518.84 444.73 513.1 443.23z"/><path fill="#FFF" d="M708.7 464.94 701.78 463.41 694.86 462.97 687.95 464.59 681.02 465.98 674.12 460.39 667.23 464.67 660.33 464.44 653.4 460.81 646.48 464.74 639.56 460.37 632.62 460.2 625.7 465.39 618.76 460.73 611.85 464.58 604.9 464.38 597.95 461.28 590.97 461.1 584 466.27 578.53 459.92 571.21 459.51 570.33 452.37 567.93 446.72 568.19 438.63 569.64 430.54 566.16 423.15 570.65 417.19 577.68 415.3 584 415.75 590.92 412.85 597.83 415.17 604.75 416.39 611.67 415.29 618.57 416.71 625.46 414.73 632.36 410.82 639.3 411.33 646.21 410.67 653.13 415.97 660.07 412.69 667 413.12 673.94 416.15 680.85 415.38 687.79 410.52 694.75 415.9 701.72 415.71 708.7 415.1 715.83 413.32 719.22 420.02 721.11 425.4 723.44 430.54 725.97 438.63 724.14 446.72 721.9 452.18 718.5 456.52 716.15 464.71z"/></svg>
